<svg width="197" height="79" viewBox="0 0 197 79" fill="none" xmlns="http://www.w3.org/2000/svg">
<path d="M36.8915 71.8567C36.8624 71.7139 36.8516 71.7009 36.797 71.7455C36.7237 71.8052 36.6692 71.8874 36.5933 71.9753C36.4253 71.8489 36.3746 71.684 36.4448 71.4677C36.5413 71.1717 36.5509 70.8511 36.7221 70.5741C36.7593 70.5139 36.6991 70.3937 36.6839 70.3006C36.657 70.3001 36.6302 70.2998 36.6033 70.2993C36.55 70.4668 36.5124 70.6416 36.4391 70.8004C36.3581 70.977 36.3433 71.1825 36.099 71.2833C35.9647 71.3388 35.9032 71.5703 35.7025 71.607C35.6857 71.6101 35.6631 71.72 35.6775 71.7295C35.7368 71.7693 35.8091 71.7892 35.8989 71.8256C35.7823 71.9774 35.7134 72.1653 35.8772 72.3574C35.6349 72.4518 35.524 72.6474 35.5423 72.9779C35.6211 72.936 35.6848 72.8802 35.755 72.8715C35.8052 72.8651 35.8633 72.9209 35.9587 72.9698C35.9959 72.8317 36.0332 72.7028 36.0639 72.5729C36.0799 72.505 36.0735 72.4297 36.0981 72.3665C36.1098 72.3362 36.1753 72.3046 36.209 72.3111C36.2429 72.318 36.2953 72.3751 36.2914 72.4041C36.2667 72.5985 36.2411 72.7944 36.1879 72.9823C36.1744 73.029 36.0591 73.0706 35.9894 73.0727C35.8412 73.0771 35.6917 73.0537 35.5397 73.0415C35.4951 73.1688 35.4604 73.267 35.4266 73.3661C35.4114 73.4107 35.4105 73.4656 35.3833 73.4998C35.1683 73.7659 35.119 74.097 35.0163 74.4077C35.0115 74.4224 34.9817 74.4285 34.9526 74.4445C34.9352 74.4194 34.8976 74.3882 34.9028 74.3684C34.9934 74.02 35.0874 73.672 35.1853 73.3255C35.1969 73.283 35.2272 73.2229 35.2602 73.2138C35.4374 73.1657 35.4799 73.0532 35.4322 72.8927C35.3967 72.7742 35.3417 72.7521 35.0557 72.7369C35.0887 72.8507 35.119 72.9551 35.1554 73.0801C35.086 73.0801 35.0228 73.0801 34.9539 73.0801C34.924 72.9797 34.8928 72.8763 34.8633 72.7772C34.8118 72.7836 34.7723 72.7802 34.7689 72.7897C34.6766 73.0507 34.5609 73.3073 34.5094 73.5764C34.476 73.7512 34.5371 73.9443 34.5587 74.1606C34.5081 74.1806 34.4301 74.2113 34.3443 74.2446C34.4431 74.7769 34.294 75.2836 34.1741 75.7934C34.1507 75.8933 34.1342 75.9963 34.0969 76.0906C34.0428 76.2283 33.983 76.3663 33.9054 76.4922C33.8361 76.6052 33.7533 76.6822 33.8902 76.8211C33.9626 76.8947 33.9527 77.0492 33.9938 77.2296C33.889 77.1149 33.8409 77.018 33.7845 77.0129C33.7304 77.0076 33.6225 77.0929 33.6165 77.147C33.59 77.3833 33.4279 77.6152 33.5805 77.8428C33.4583 78.0077 33.3261 78.1483 33.2408 78.3128C33.155 78.479 33.116 78.6689 33.0566 78.8489C33.0333 78.8468 33.0099 78.8441 32.9865 78.842C32.9505 78.5629 32.9141 78.2834 32.8781 78.0042C32.8959 78.0007 32.9137 77.9973 32.9315 77.9938C32.9565 78.0375 32.9813 78.0813 33.0428 78.189C33.1212 77.8143 33.1086 77.4928 33.0814 77.1764C33.0653 76.9886 33.0177 76.8159 33.1268 76.6329C33.1832 76.5385 33.1628 76.4022 33.1936 76.2892C33.2482 76.0885 33.3197 75.8924 33.3764 75.6921C33.4466 75.4442 33.5099 75.1944 33.5735 74.9443C33.6832 74.5142 33.7815 74.081 33.9041 73.6548C33.9535 73.483 33.9825 73.3376 33.8049 73.216C34.1074 72.9935 34.0584 72.6525 34.1402 72.3669C34.2711 71.9095 34.3144 71.4279 34.5302 70.9921C34.5683 70.9151 34.5605 70.8142 34.5709 70.7239C34.5843 70.6082 34.564 70.4776 34.6112 70.3785C34.7901 70.0041 34.8092 69.6013 34.8798 69.2041C34.9184 68.9855 35.0548 68.7739 35.1848 68.5848C35.4071 68.2606 35.3988 67.7318 35.1424 67.4618C34.9734 67.5038 34.8078 67.5432 34.6432 67.5865C34.6103 67.5951 34.5635 67.6107 34.5531 67.6354C34.4045 67.9967 34.005 67.9928 33.7477 68.2282C33.6919 68.1391 33.652 68.075 33.59 67.9759C33.5003 68.0525 33.4089 68.1062 33.3509 68.1845C33.1373 68.4718 32.8478 68.6259 32.513 68.7332C32.3111 68.7981 32.1447 68.9509 31.9336 69.0188C31.8479 69.0465 31.8054 69.1296 31.7127 69.0218C31.6937 68.9993 31.4922 69.066 31.4796 69.1166C31.4125 69.3936 31.1139 69.3892 30.9688 69.5706C30.8384 69.7333 30.6945 69.5979 30.5472 69.5005C30.4467 69.6562 30.2461 69.6688 30.1551 69.8579C30.1195 69.9315 29.9242 69.9302 29.8011 69.96C29.4346 70.0488 29.0672 70.1349 28.7006 70.224C28.3935 70.2984 28.0876 70.3793 27.7796 70.4486C27.7159 70.4629 27.6435 70.4387 27.5751 70.4326C27.4958 70.4257 27.3879 70.3824 27.3428 70.4183C27.1397 70.5802 26.8857 70.5386 26.6617 70.5962C26.3515 70.6758 26.0183 70.6723 25.6921 70.6165C25.5985 70.6005 25.4949 70.6321 25.3975 70.6502C25.342 70.6606 25.2882 70.7061 25.2359 70.703C24.9265 70.6849 24.6025 70.6732 24.3156 70.607C24.047 70.5446 23.7619 70.4957 23.4946 70.4006C23.1406 70.2746 22.8179 70.1089 22.5791 69.809C22.4491 69.6459 22.2802 69.5511 22.0765 69.5048C21.9089 69.4667 21.7451 69.41 21.5297 69.3473C21.5878 69.4741 21.6229 69.5511 21.6658 69.645C21.606 69.6528 21.5562 69.6718 21.5449 69.6585C21.5007 69.6061 21.4487 69.5476 21.4362 69.484C21.3569 69.0959 21.0111 68.9327 20.7603 68.6964C20.6624 68.6043 20.4812 68.6008 20.3001 68.5449C20.2508 68.2983 20.1918 68.0266 20.1459 67.7531C20.1381 67.7072 20.1732 67.6337 20.2122 67.6042C20.3989 67.4627 20.5935 67.3307 20.7867 67.197C20.863 67.1442 20.9652 67.1126 21.0163 67.0425C21.3122 66.6366 21.7555 66.396 22.1047 66.0519C22.3343 65.8257 22.5241 65.5591 22.7485 65.3267C22.8846 65.186 23.0436 65.0632 23.2077 64.9559C23.3724 64.8481 23.5591 64.7837 23.6372 64.5686C23.6601 64.5049 23.7923 64.4807 23.8741 64.4388C23.8789 64.4482 23.8872 64.4582 23.8872 64.4677C23.8872 64.4785 23.8794 64.4894 23.8758 64.5027C23.8057 64.6074 23.7195 64.7027 23.667 64.8135C23.6159 64.9221 23.3798 64.8879 23.4586 65.1449C23.6419 64.9199 23.9361 64.8312 23.8737 64.4949C23.9759 64.508 24.0834 64.5499 24.1558 64.4283C24.1783 64.3902 24.2117 64.3332 24.2437 64.3309C24.5396 64.308 24.5127 64.1484 24.4313 63.9415C24.4144 63.8986 24.4768 63.8251 24.5158 63.7355C24.5998 63.8078 24.66 63.8593 24.7579 63.9436C24.8026 63.6637 25.0682 63.6542 25.1938 63.4754C25.3212 63.2937 25.5075 63.153 25.6679 62.9947C25.7276 62.9579 25.7839 62.8965 25.8476 62.8882C26.0829 62.8575 26.1353 62.6935 26.1847 62.4602C26.0764 62.5347 26.0036 62.5849 25.9308 62.635C25.8948 62.4694 25.7644 62.4866 25.6505 62.5048C25.1995 62.5766 24.7515 62.6667 24.2991 62.7294C24.034 62.7661 23.7632 62.7653 23.4951 62.7796C22.9682 62.8069 22.4413 62.841 21.914 62.8549C21.7169 62.86 21.5185 62.8164 21.3209 62.7948C21.3092 62.7934 21.2971 62.7835 21.2872 62.7861C20.9097 62.8774 20.5515 62.6731 20.1771 62.7142C20.1078 62.722 20.0216 62.7394 19.9683 62.7086C19.5402 62.462 19.0082 62.5018 18.5978 62.1867C18.4185 62.0492 18.1663 62.0072 17.9497 61.9172C17.7634 61.8397 17.6031 61.7415 17.4918 61.5528C17.3552 61.3213 17.1755 61.1158 17.0143 60.8984C17.0073 60.889 17.0039 60.8747 16.9952 60.8695C16.5988 60.6389 16.539 60.1862 16.3141 59.8422C16.1868 59.647 16.0555 59.4536 15.91 59.2722C15.8679 59.2199 15.7643 59.1783 15.6994 59.19C15.4805 59.229 15.2653 59.2896 15.052 59.3528C15.0018 59.3675 14.9411 59.4164 14.9238 59.4639C14.7783 59.8608 14.4394 60.0075 14.0846 60.1516C13.8944 60.2286 13.7254 60.3576 13.5483 60.4653C13.4984 60.4956 13.4555 60.5574 13.4048 60.5636C12.7996 60.6323 12.3217 61.0495 11.7225 61.1564C11.3771 61.2183 11.0561 61.4208 10.729 61.5709C10.6011 61.6294 10.5518 61.728 10.6029 61.8855C10.6735 62.1045 10.6588 62.1093 10.3581 62.1824C10.362 62.0981 10.3854 62.0141 10.3633 61.9444C10.3417 61.8769 10.2732 61.8246 10.2255 61.7652C10.1679 61.828 10.0791 61.883 10.0609 61.9553C10.0401 62.037 10.0825 62.1348 10.0994 62.2365C10.0128 62.2737 9.91925 62.2967 9.84776 62.3491C9.75456 62.417 9.69742 62.4901 9.73808 62.6433C9.83172 62.9951 9.88931 63.3578 9.94131 63.7187C9.9569 63.8273 9.90623 63.9454 9.88585 64.0592L9.89498 64.0514C9.56701 63.7299 9.50109 63.2919 9.37113 62.8813C9.29016 62.6264 9.18872 62.378 9.09215 62.1149C8.87944 62.0834 8.69437 62.1525 8.53579 62.2768C8.27843 62.4788 7.97474 62.4035 7.69098 62.4299C7.62294 62.4364 7.52806 62.3438 7.47304 62.275C7.13728 61.8561 6.70787 61.5546 6.2564 61.2775C6.08701 61.1733 5.91674 61.0685 5.75993 60.947C5.68976 60.8924 5.62819 60.8037 5.60268 60.7184C5.47661 60.2957 5.28251 59.898 5.14598 59.4778C5.04765 59.1749 4.98484 58.8724 4.92982 58.5664C4.8748 58.2592 4.86913 57.9434 4.82668 57.633C4.78248 57.3115 4.73526 56.9891 4.6603 56.6741C4.57106 56.2993 4.50737 55.9246 4.48007 55.5395C4.46447 55.3235 4.38128 55.1127 4.3345 54.8985C4.30677 54.7726 4.25001 54.6346 4.27774 54.5186C4.36179 54.1633 4.23224 53.8328 4.20062 53.4913C4.16812 53.1421 4.06717 52.7881 4.104 52.448C4.13432 52.1706 4.06197 51.9192 4.06154 51.6552C4.06024 51.0099 4.06197 50.3643 4.0572 49.7191C4.05374 49.2288 4.04074 48.739 4.03511 48.2487C4.03424 48.1911 4.05591 48.1335 4.06284 48.0756C4.11743 47.6359 4.17678 47.1967 4.22271 46.7562C4.2643 46.3602 4.43631 46.1957 4.82278 46.1677C5.36348 46.1287 5.76817 46.4022 6.13733 46.7362C6.24125 46.8306 6.331 46.8729 6.46397 46.9002C6.77068 46.9634 7.09218 46.944 7.3864 47.0945C7.4951 47.15 7.65589 47.1036 7.82785 47.1036C7.73084 46.8276 7.52283 46.7042 7.36735 46.5428C6.8808 46.0369 6.38681 45.5388 5.89379 45.0394C5.80325 44.9477 5.70704 44.8599 5.6048 44.7815C5.56325 44.75 5.48955 44.7248 5.44366 44.7391C5.03684 44.8672 4.63128 44.824 4.21838 44.7694C3.95496 44.7349 3.68157 44.7811 3.41598 44.756C2.96365 44.714 2.52519 44.5842 2.17945 44.2869C1.89523 44.0424 1.56769 43.8637 1.28433 43.6227C1.22195 43.5694 1.16259 43.511 1.09413 43.4669C0.820314 43.2904 0.845447 43.0103 0.848477 42.7451C0.850638 42.5712 1.03262 42.3907 1.23018 42.3954C1.64265 42.4058 1.8922 42.154 2.16212 41.9012C2.4745 41.6087 2.81634 41.3478 3.14259 41.07C3.24918 40.9791 3.36052 40.8886 3.44674 40.78C3.57932 40.6139 3.74959 40.4888 3.89343 40.3438C4.09707 40.1387 4.28857 39.9284 4.51776 39.7449C4.64384 39.6441 4.68327 39.4502 4.8826 39.3996C4.96056 39.3797 5.01691 39.2728 5.08184 39.2044C5.34487 38.9262 5.6126 38.6523 5.86863 38.3679C6.14247 38.0637 6.4055 37.7504 6.67234 37.4402C6.72612 37.3778 6.76598 37.2995 6.82968 37.2506C7.18538 36.9775 7.38294 36.586 7.62595 36.2259C7.85735 35.8836 8.10904 35.5551 8.3478 35.2176C8.5233 34.9697 8.73167 34.7351 8.85561 34.4634C9.02934 34.0821 9.28582 33.7541 9.47337 33.381C9.83695 32.6584 10.2853 31.979 10.6735 31.2684C10.9538 30.7556 11.1917 30.2199 11.4534 29.6971C11.5366 29.5314 11.6449 29.3778 11.7259 29.2112C11.7961 29.0658 11.8325 28.9039 11.904 28.7594C12.1015 28.3595 12.3541 27.9804 12.5015 27.5637C12.6505 27.1423 12.8745 26.7658 13.0725 26.3742C13.2107 26.1007 13.2731 25.7809 13.5391 25.574C13.5972 25.529 13.6045 25.4013 13.6097 25.31C13.6253 25.037 13.7384 24.8041 13.9187 24.6133C14.0322 24.493 14.0915 24.374 14.0855 24.2135C14.0837 24.1672 14.0837 24.107 14.1102 24.0763C14.3623 23.7803 14.4499 23.3943 14.663 23.078C14.6946 23.0312 14.7288 22.9828 14.7462 22.9304C14.8688 22.5496 15.0984 22.2216 15.2653 21.8663C15.3648 21.6538 15.5373 21.4535 15.5364 21.18C15.536 21.0671 15.6664 20.9442 15.7574 20.8437C15.8601 20.73 15.9251 20.6166 15.9767 20.4634C16.1101 20.0661 16.1747 19.639 16.4211 19.2837C16.4346 19.2642 16.4398 19.2357 16.4575 19.2235C16.7153 19.0453 16.821 18.7943 16.8276 18.4883C16.8288 18.4359 16.8566 18.3603 16.8964 18.3373C17.1222 18.2075 17.1339 17.9739 17.1959 17.7631C17.2154 17.6973 17.2136 17.6073 17.2574 17.57C17.4341 17.4194 17.5303 17.2299 17.6087 17.0153C17.6845 16.8084 17.782 16.6008 17.9103 16.4229C18.2344 15.9728 18.4588 15.4691 18.7158 14.984C18.8726 14.6876 19.107 14.4504 19.2742 14.1705C19.4293 13.9104 19.5931 13.6521 19.7144 13.3643C19.8695 12.9974 20.1316 12.6741 20.3582 12.3387C20.4938 12.1384 20.6728 11.9644 20.7889 11.7545C20.9015 11.5511 21.1086 11.3892 21.1004 11.1253C21.3842 10.9634 21.3759 10.5605 21.6848 10.4182C21.7143 10.4043 21.7572 10.3688 21.7555 10.3455C21.7355 10.0378 22.0882 9.9045 22.0964 9.61153C22.0973 9.57911 22.1151 9.52976 22.1393 9.51851C22.5064 9.34673 22.4886 8.91138 22.7234 8.66516C22.9664 8.41071 23.0995 8.09914 23.2819 7.8157C23.6952 7.17221 24.0726 6.5058 24.4659 5.8489C24.4945 5.8013 24.5287 5.75586 24.5678 5.71691C24.5994 5.68532 24.6722 5.66888 24.6756 5.63988C24.7402 5.10329 25.1124 4.72161 25.3684 4.28628C25.5795 3.92711 25.6228 3.53201 25.6899 3.14644C25.7883 2.58128 25.8242 2.00531 25.8857 1.43409C25.8909 1.38736 25.9044 1.335 25.8896 1.29389C25.7644 0.942937 25.8966 0.637424 26.033 0.32239C26.1444 0.0662091 26.27 -0.0276953 26.4668 0.138477C26.6942 0.33018 26.8784 0.258778 27.0668 0.137178C27.2089 0.0454376 27.3043 0.0259643 27.4325 0.15968C27.484 0.21334 27.6084 0.224591 27.6942 0.21334C27.9464 0.179586 28.1955 0.125061 28.4614 0.0757293C28.504 0.17223 28.5391 0.252287 28.5798 0.34446C28.8289 0.228053 29.0646 0.118138 29.318 0C29.3077 0.119436 29.2994 0.2181 29.2908 0.318063C29.5243 0.433171 29.7855 0.108618 29.9861 0.3886C29.9393 0.488995 29.8908 0.591987 29.8263 0.730897C29.9749 0.790614 30.1131 0.825233 30.2261 0.8988C30.3159 0.957218 30.4207 1.05588 30.435 1.14936C30.4541 1.27095 30.3899 1.39991 30.2227 1.42242C30.1387 1.43367 30.0624 1.47131 30.1078 1.58816C30.114 1.6033 30.0754 1.65782 30.0602 1.65652C29.8172 1.63835 29.7872 1.83568 29.711 1.99017C29.506 2.40516 29.3717 2.83747 29.3185 3.30093C29.2786 3.64755 29.1807 3.98725 29.1239 4.33258C29.0806 4.59482 29.013 4.86701 29.0464 5.12276C29.0733 5.32875 29.1482 5.52608 29.0797 5.73422C29.0351 5.87011 28.9784 6.00166 28.9186 6.15787C28.9372 6.20504 29.0048 6.29332 29.0009 6.37857C28.9757 6.97618 28.9234 7.57337 28.9051 8.17097C28.8917 8.61367 28.9177 9.05721 28.9259 9.50079C28.9285 9.64103 28.9571 9.78641 28.9298 9.9201C28.8423 10.3437 28.8723 10.7527 28.9679 11.1742C29.026 11.4295 28.9679 11.7095 28.9879 11.9765C29.0382 12.6546 29.1014 13.3318 29.1629 14.0091C29.179 14.1843 29.2218 14.3579 29.2279 14.5327C29.2357 14.7673 29.2483 14.9862 29.351 15.2146C29.4359 15.4033 29.3882 15.6483 29.4159 15.866C29.478 16.3545 29.555 16.8414 29.6166 17.3299C29.6412 17.5268 29.643 17.7263 29.6543 17.9245C29.6556 17.9478 29.6439 17.9725 29.6482 17.9946C29.7405 18.4758 29.8337 18.957 29.9293 19.4378C29.9324 19.4538 29.9636 19.4646 30.0039 19.494C30.0372 19.4564 30.091 19.4222 30.1048 19.3764C30.1793 19.1323 30.2318 18.8813 30.3163 18.6411C30.3821 18.4538 30.4853 18.2828 30.4246 18.0686C30.4099 18.0171 30.4566 17.8981 30.493 17.8903C30.6924 17.8457 30.678 17.6635 30.7408 17.5358C30.8739 17.265 30.9939 16.9876 31.1221 16.7067C31.0793 16.6842 31.0312 16.6591 30.9466 16.6146C31.016 16.5172 31.0784 16.4254 31.1451 16.3376C31.1941 16.2731 31.2642 16.2203 31.2984 16.1494C31.4661 15.8066 31.5511 15.4302 31.782 15.109C31.8878 14.962 31.8708 14.73 31.9254 14.5413C31.957 14.4327 32.0203 14.3327 32.0961 14.1722C32.0961 14.3816 32.0961 14.5271 32.0961 14.7386C32.4293 14.4249 32.506 14.0359 32.691 13.6962C32.4553 13.5845 32.4215 13.8109 32.2932 13.8672C32.3028 13.8295 32.3136 13.7974 32.3192 13.7646C32.3665 13.4893 32.4579 13.2617 32.7781 13.1921C32.9968 13.1444 33.0658 12.945 33.1455 12.7338C32.9124 12.6827 32.912 12.9765 32.7382 12.9653C32.7507 12.726 32.7763 12.6987 33.1134 12.6022C33.1134 12.3599 33.1134 12.1033 33.1134 11.8462C33.1451 11.8432 33.1771 11.8406 33.2088 11.8376C33.2278 11.9293 33.2546 12.0206 33.2633 12.1136C33.2728 12.2167 33.2655 12.3214 33.2655 12.481C33.6715 12.2812 33.6649 11.9362 33.7074 11.5901C33.7906 11.6372 33.866 11.6796 33.986 11.7476C34.1116 11.4567 34.2351 11.1712 34.3655 10.8695C34.5436 10.8431 34.4288 11.0682 34.5224 11.1296C34.72 10.9219 34.9114 10.7207 35.1029 10.5194C35.1112 10.5112 35.1307 10.5035 35.1294 10.4978C35.0718 10.1598 35.4288 10.0067 35.5171 9.64183C35.362 9.73574 35.268 9.79288 35.1325 9.87509C35.21 9.51071 35.4565 9.3182 35.6683 9.11648C35.8283 8.96463 35.8911 8.82571 35.7866 8.63011C35.895 8.45312 36.0401 8.43019 36.2324 8.48557C36.1965 8.61453 36.164 8.73224 36.1242 8.87506C36.5167 8.86204 36.2628 8.45485 36.5085 8.35575C36.6488 8.49597 36.4746 8.60068 36.4526 8.7145C36.4296 8.83307 36.3802 8.94691 36.3711 9.0806C36.5188 8.80754 36.6978 8.5864 37.0716 8.50462C37.0244 8.62362 37.0067 8.76037 36.959 8.77205C36.7134 8.8309 36.6882 9.03905 36.6198 9.24245C36.4265 9.23032 36.2337 9.27231 36.1436 9.44409C36.0687 9.5869 36.0605 9.7648 36.0185 9.94437C36.349 9.90973 36.1506 9.48307 36.4746 9.47784C36.4946 9.57955 36.5136 9.67859 36.5431 9.83009C36.6371 9.75434 36.7619 9.70464 36.7762 9.63279C36.8225 9.40121 36.9612 9.2965 37.1701 9.23377C37.2506 9.20959 37.3182 9.14164 37.4092 9.11612C37.2107 9.21348 37.2689 9.57866 36.9552 9.52072C36.9465 9.66734 36.9396 9.78987 36.9361 9.85046C36.7666 9.94437 36.6584 10.0239 36.537 10.0659C36.4235 10.1049 36.2966 10.1031 36.1627 10.1209C35.8022 10.413 35.557 10.7665 35.7866 11.3278C35.8421 11.259 35.9257 11.1975 35.9158 11.1603C35.878 11.0179 35.9677 10.9418 36.0349 10.847C36.1237 10.7219 36.2056 10.5917 36.2875 10.468C36.2922 10.5718 36.2974 10.6951 36.3031 10.8189C36.3217 10.8254 36.3403 10.8319 36.359 10.8384C36.4023 10.7584 36.443 10.6765 36.4898 10.5982C36.6393 10.3494 36.8139 10.1201 37.0318 9.92577C37.3208 9.66823 37.6085 9.40989 37.9538 9.18531C37.946 9.23209 37.9486 9.31386 37.9282 9.32033C37.7042 9.38961 37.7073 9.59514 37.6484 9.76347C37.6367 9.79678 37.6367 9.84267 37.6137 9.86216C37.3269 10.1061 37.4976 10.329 37.6535 10.5713C37.3399 10.831 37.2428 11.2062 37.1497 11.5836C37.122 11.6961 37.1566 11.764 37.2653 11.7843C37.3923 11.6394 37.5201 11.5065 37.6306 11.3607C37.6835 11.2911 37.7082 11.198 37.7398 11.1136C37.8109 10.9228 37.8585 10.8973 38.0851 10.9254C38.0669 11.0551 38.0621 11.188 38.0261 11.3118C38.0062 11.3797 37.9343 11.484 37.8854 11.484C37.6301 11.4845 37.5799 11.6567 37.5275 11.8471C37.5066 11.9219 37.4512 11.9878 37.3975 12.0829C37.4802 12.1219 37.5461 12.1531 37.6145 12.1855C37.5561 12.2509 37.4894 12.3928 37.411 12.3997C37.0851 12.4282 37.0821 12.6862 37.001 12.8982C36.9443 13.0471 36.872 13.1903 36.8014 13.3336C36.7658 13.4054 36.6795 13.4742 36.6843 13.5391C36.6978 13.717 36.6735 13.8757 36.531 13.9978C36.6678 14.0891 36.7459 14.0778 36.8069 13.9762C36.8477 13.9087 36.8915 13.8433 36.9339 13.7767L36.9256 13.7689C36.9564 13.8672 36.9868 13.9653 37.0175 14.0636C37.0418 14.2133 36.8412 14.3046 36.9179 14.5037C36.9318 14.54 36.7931 14.659 36.7065 14.7053C36.5097 14.81 36.3893 14.9585 36.297 15.1636C36.2134 15.3492 36.0648 15.5072 35.9365 15.6708C35.8013 15.843 35.6432 15.9988 35.5219 16.1797C35.4625 16.2679 35.4643 16.3969 35.4357 16.5069C35.4045 16.6258 35.4136 16.7487 35.2004 16.7193C35.0973 16.705 34.9279 16.8513 34.8612 16.9668C34.7525 17.1555 34.6797 17.323 34.418 17.3619C34.3213 17.3762 34.0865 17.4593 34.1359 17.7211C34.23 17.6899 34.3178 17.6605 34.4141 17.629C34.4257 17.6601 34.4452 17.6904 34.4475 17.722C34.4708 18.05 34.1441 18.1564 34.0203 18.3918C34.015 18.4018 34.0029 18.4187 33.9977 18.4173C33.6424 18.3257 33.5558 18.6982 33.3188 18.8047C33.2221 18.8479 33.0995 18.8419 32.9886 18.8444C32.785 18.8488 32.7001 18.8999 32.691 19.0596C32.6897 19.0834 32.7672 19.1115 32.808 19.1379L32.798 19.1296C32.7841 19.159 32.7768 19.2076 32.7551 19.2149C32.4376 19.3231 32.3466 19.607 32.236 19.8749C32.2183 19.9177 32.2157 19.9666 32.1966 20.0081C32.0757 20.2691 31.9523 20.5287 31.8041 20.8433C31.6971 20.3417 32.0164 20.0141 32.1681 19.5823C31.8873 19.6719 31.8266 19.8579 31.7768 20.0254C31.743 20.1401 31.7365 20.2478 31.6191 20.3167C31.5736 20.3435 31.5225 20.4062 31.5212 20.4543C31.5138 20.7486 31.286 20.8377 31.123 20.9247C31.0589 21.1229 31.0064 21.2847 30.948 21.466C30.8561 21.4439 30.7829 21.4262 30.7006 21.4063C30.6209 21.5465 30.5199 21.679 30.4713 21.8282C30.4449 21.9091 30.4766 22.0506 30.5368 22.11C30.678 22.2489 30.669 22.3734 30.6239 22.553C30.5559 22.8266 30.4948 23.1165 30.7859 23.341C30.854 23.3934 30.8544 23.5506 30.8609 23.6609C30.8721 23.8604 30.8176 24.0772 31.1135 24.1711C31.0247 24.3013 30.9649 24.3827 30.9116 24.4679C30.8393 24.5843 30.8435 24.7327 30.9692 24.7635C31.1494 24.8072 31.1161 24.9487 31.1672 25.0638C31.2266 25.0586 31.2828 25.0543 31.3518 25.0482C31.3704 25.1715 31.4198 25.3019 31.399 25.4199C31.3782 25.5377 31.2867 25.6428 31.2149 25.7752C31.2929 25.9341 31.3869 26.1088 31.464 26.2911C31.4964 26.3685 31.4934 26.4611 31.5051 26.5472C31.5108 26.5905 31.4978 26.6619 31.5195 26.6741C31.7517 26.806 31.6884 27.0259 31.7001 27.2271C31.7053 27.3184 31.7175 27.4275 31.7698 27.4945C31.9236 27.6909 31.9545 27.8831 31.834 28.1051C31.8106 28.1483 31.8305 28.215 31.8305 28.321C31.9163 28.241 31.9696 28.1912 32.0329 28.1319C32.0549 28.2172 32.0749 28.2938 32.1009 28.3937C32.4306 28.228 32.7447 28.0696 33.0571 27.9125C33.1303 28.0155 33.1156 28.0835 33.0094 28.115C32.6429 28.2245 32.4734 28.5604 32.2279 28.8052C32.1624 28.8706 32.1278 29.035 32.1633 29.1173C32.2183 29.2454 32.2248 29.3531 32.2087 29.4864C32.1897 29.6456 32.298 29.7092 32.4609 29.6548C32.6134 29.6041 32.7633 29.5448 32.9882 29.4622C32.2712 30.0879 32.2109 30.432 32.7374 30.6713C32.6979 30.8244 32.6576 30.9802 32.6108 31.1633C32.6784 31.1633 32.7386 31.1633 32.8314 31.1633C32.8859 31.493 32.9483 31.8314 32.9964 32.172C33.0211 32.3468 33.1346 32.4623 33.2139 32.6043C33.3803 32.9011 33.4357 33.2412 33.2334 33.5888C33.3123 33.6299 33.3759 33.6632 33.4185 33.6857C33.4435 33.9574 33.4674 34.2193 33.4907 34.4711C33.6134 34.4828 33.71 34.4655 33.7719 34.504C33.8807 34.5715 33.8031 34.6598 33.7698 34.7489C33.7438 34.8177 33.736 34.9428 33.7767 34.9783C33.9188 35.102 34.0605 35.2076 33.9379 35.421C34.1415 35.569 34.0492 35.8329 34.1741 36.0432C34.2394 36.0082 34.2949 35.9787 34.3846 35.9307C34.398 36.0342 34.4557 36.1627 34.4145 36.2194C34.2663 36.4232 34.3309 36.5348 34.4825 36.5829C34.5003 36.894 34.5158 37.164 34.5314 37.4337C34.5536 37.441 34.5752 37.448 34.5974 37.4553C34.6575 37.383 34.7178 37.3107 34.8078 37.203C34.8078 37.5124 34.8078 37.7889 34.8078 38.1079C34.8504 38.1373 34.9348 38.1957 34.9881 38.2329C34.9881 38.5332 34.9881 38.8102 34.9881 39.1196C35.0882 39.0936 35.1701 39.0725 35.2602 39.0495C35.2693 39.0967 35.2823 39.13 35.2806 39.162C35.271 39.3221 35.2537 39.4822 35.2485 39.6424C35.2472 39.6843 35.2702 39.7354 35.2984 39.7687C35.5795 40.0989 35.5804 40.098 35.606 40.4706C35.8066 40.4014 35.8625 40.5242 35.9145 40.6883C35.9595 40.8298 36.0496 40.9575 36.138 41.1262C36.3113 40.8592 36.5093 40.7051 36.8225 40.999C36.9066 40.6679 36.9763 40.3897 37.0483 40.1118C37.1167 39.8475 37.1869 39.5835 37.2723 39.2581C37.0673 39.3429 36.9513 39.3883 36.9287 39.5649C36.9114 39.7025 36.8923 39.6999 36.6562 39.78C36.6497 39.6233 36.6267 39.4779 36.6423 39.3368C36.6692 39.0941 36.7086 38.8513 36.7649 38.6137C36.8104 38.4229 36.8811 38.2363 36.9582 38.056C36.9781 38.0087 37.0691 37.9607 37.1206 37.9672C37.1743 37.9738 37.2533 38.039 37.2636 38.0901C37.2914 38.2264 37.3026 38.3701 37.293 38.509C37.2827 38.6604 37.2372 38.8089 37.2151 38.9595C37.2047 39.0305 37.2134 39.104 37.268 39.1814C37.3629 38.927 37.4577 38.6726 37.5634 38.3887C37.7874 38.5731 37.5344 38.7609 37.6531 38.9495C37.7472 39.0988 37.631 39.3667 37.6947 39.5524C37.7653 39.7579 37.7211 39.9405 37.7255 40.1357C37.7298 40.34 37.8078 40.5433 37.8572 40.7458C37.904 40.9366 37.956 41.1262 38.0036 41.3079C38.1306 41.3079 38.251 41.3343 38.3498 41.3001C38.4369 41.2699 38.5274 41.185 38.5695 41.1007C38.8563 40.5234 39.3494 40.104 39.7111 39.5874C39.9884 39.191 40.4238 38.9336 40.6309 38.4848C40.9069 38.3614 40.971 37.9867 41.3137 37.9252C41.3965 37.9105 41.4784 37.7625 41.5178 37.66C41.6132 37.4107 41.6612 37.1428 41.8974 36.9667C41.9355 36.9385 41.9207 36.8391 41.9307 36.769C41.9853 36.7624 42.0741 36.7798 42.1188 36.743C42.4082 36.5054 42.6764 36.2411 42.974 36.0152C43.3267 35.7472 43.7023 35.5088 44.0684 35.2579C44.126 35.2184 44.185 35.1817 44.2408 35.1397C44.2881 35.1047 44.3439 35.0722 44.3739 35.0246C44.5095 34.8074 44.8158 34.9783 44.9562 34.7537C45.087 34.5438 45.3106 34.5615 45.5281 34.5663C45.6091 34.5681 45.6979 34.5109 45.7719 34.4634C45.8574 34.4084 45.9305 34.3344 45.9614 34.3089C45.9774 34.1656 45.9752 34.0639 46.0025 33.9704C46.032 33.8701 46.0913 33.7787 46.132 33.6809C46.1494 33.6389 46.1719 33.558 46.1602 33.5516C45.9977 33.4598 46.1017 33.3227 46.0978 33.2075C46.0934 33.0759 46.0965 32.9436 46.1095 32.8129C46.1424 32.487 46.2538 32.1495 46.2022 31.8387C46.1377 31.4511 46.2659 31.1209 46.3235 30.7647C46.3465 30.6224 46.34 30.4614 46.3357 30.3129C46.3326 30.213 46.3214 30.1437 46.3925 30.0667C46.4163 30.0412 46.4228 29.9615 46.4019 29.9395C46.2798 29.8093 46.3574 29.6669 46.3755 29.5361C46.4111 29.2847 46.4748 29.0376 46.5198 28.7871C46.5362 28.6962 46.5346 28.6015 46.5371 28.5084C46.5475 28.1363 46.5557 27.7641 46.5657 27.3915C46.5671 27.3448 46.5549 27.2833 46.5796 27.2539C46.7542 27.0445 46.6749 26.7852 46.723 26.5524C46.7867 26.2434 46.7841 25.9163 46.8786 25.6186C47.0705 25.0145 47.1008 24.3831 47.2446 23.7738C47.3469 23.3415 47.5003 22.9205 47.6397 22.4972C47.794 22.0299 47.9426 21.5591 48.1246 21.102C48.2303 20.8368 48.3958 20.5954 48.5362 20.3443C48.6206 20.1934 48.7164 20.0483 48.7949 19.8943C48.9153 19.658 49.0314 19.6273 49.3048 19.7216C49.4903 19.7857 49.6913 19.8407 49.8841 19.8377C50.1233 19.8338 50.2918 19.9099 50.4209 20.1116C50.3156 20.1574 50.2112 20.2024 50.1029 20.2496C50.3754 20.6049 50.3463 20.6892 49.9136 20.8165C49.7805 20.8554 49.6402 20.9078 49.5063 20.8992C49.2771 20.8844 49.1362 20.993 49.0661 21.1787C48.8945 21.6348 48.6982 22.0762 48.745 22.5977C48.7888 23.0845 48.7212 23.5808 48.723 24.0728C48.7238 24.3511 48.7693 24.6289 48.7888 24.9076C48.7979 25.0356 48.8044 25.166 48.7927 25.2936C48.7667 25.5805 48.6683 25.8721 48.943 26.1106C48.9877 26.1492 48.9886 26.2755 48.9655 26.3473C48.81 26.8341 48.9292 27.3457 48.8265 27.8493C48.726 27.8973 48.6242 27.9458 48.4435 28.032C48.6125 28.032 48.6952 28.032 48.7766 28.032C48.8919 28.2557 48.9772 28.4651 48.7485 28.6741C48.7069 28.7122 48.7077 28.8832 48.7372 28.8983C49.0288 29.0467 48.8819 29.3129 48.869 29.4972C48.8339 29.9944 48.8312 30.4934 48.7897 30.988C48.7498 31.461 48.8568 31.9413 48.7082 32.41C48.6818 32.494 48.7628 32.606 48.7636 32.7051C48.7658 32.8929 48.7078 33.0889 48.7463 33.2664C48.7914 33.4745 48.7689 33.6572 48.7238 33.857C48.6788 34.0587 48.7468 34.2811 48.6142 34.4724C48.593 34.5031 48.5972 34.5659 48.6125 34.6053C48.7711 35.0172 48.6532 35.4379 48.6524 35.8537C48.6515 36.2609 48.6203 36.6682 48.6025 37.0749C48.5903 37.3527 48.5995 37.634 48.5578 37.9075C48.5305 38.0871 48.4266 38.2546 48.362 38.4294C48.3309 38.5142 48.3122 38.6034 48.2827 38.7089C48.379 38.7314 48.4482 38.7474 48.5453 38.7699C48.4279 38.9313 48.3282 39.0681 48.2291 39.2048C48.1406 39.0144 48.1406 39.0144 47.901 39.0629C47.9596 39.1655 48.0141 39.2611 48.0462 39.3173C47.9413 39.4771 47.8533 39.6103 47.7655 39.744C47.7854 39.7674 47.8053 39.7908 47.8256 39.8142C47.9136 39.78 48.0011 39.7462 48.1017 39.7072C48.1289 39.7947 48.1623 39.902 48.1926 39.9993C48.0375 40.1777 47.895 40.3416 47.7364 40.5242C47.9929 40.6879 48.1099 40.5359 48.252 40.3533C48.2836 40.915 48.1493 41.4118 48.0531 41.9255C47.6658 42.0432 47.5285 42.2397 47.5302 42.6624C47.5306 42.768 47.4665 42.8736 47.4288 42.99C47.4487 43.0069 47.4847 43.0511 47.4981 43.0454C47.5999 42.9991 47.6922 42.9264 47.7971 42.8961C47.8737 42.8741 47.9626 43.0359 48.057 42.8714C48.0839 42.8247 48.2429 42.8537 48.3625 42.8784C48.0548 42.9792 48.1588 43.3207 47.9725 43.4933C47.9392 43.5244 48.0474 43.7083 48.1038 43.8568C47.9734 43.9779 47.9487 44.2635 47.6775 44.2852C47.606 44.4483 47.5432 44.5912 47.4769 44.7418C47.5107 44.7703 47.5531 44.8066 47.5978 44.8443C47.4825 45.03 47.3672 45.216 47.2503 45.4043C47.1463 45.4176 47.0246 45.4259 46.9067 45.4506C46.7741 45.4778 46.7131 45.5661 46.7109 45.705C46.7104 45.744 46.6701 45.7925 46.6346 45.8184C46.4202 45.9767 46.2291 46.1507 46.139 46.4338C46.1152 46.3411 46.0913 46.2485 46.0558 46.1122C45.9813 46.1962 45.9271 46.2577 45.8712 46.3204C45.7755 46.2814 45.6598 46.2343 45.4886 46.1646C45.5393 46.4528 45.421 46.5459 45.2235 46.6354C44.8188 46.8193 44.4463 47.0772 43.98 47.0919C43.9467 47.0928 43.8951 47.1011 43.8843 47.1218C43.7512 47.3815 43.4402 47.3222 43.2443 47.4832C43.1109 47.593 42.9172 47.626 43.1369 47.825C43.0619 47.9704 43.1425 48.0747 43.3015 48.2054C43.1915 48.2859 43.1022 48.343 43.0225 48.4109C42.8869 48.5265 42.8293 48.6684 42.893 48.8476C42.9601 49.0367 42.8705 49.1518 42.7075 49.2384C42.5455 49.3245 42.3895 49.4223 42.2405 49.5096C42.2462 49.7291 42.3562 49.6983 42.4957 49.6416C42.5113 49.7451 42.5256 49.8429 42.5434 49.9592C42.997 49.9736 43.4333 50.0632 43.8795 49.9727C44.0086 49.9467 44.1529 50.0047 44.2902 50.0065C44.7235 50.0112 45.1529 50.0155 45.5818 50.1116C45.8301 50.167 46.0974 50.1518 46.3547 50.1397C46.4163 50.1367 46.4725 50.0203 46.5315 49.9562L46.5245 49.9575C46.5696 49.9718 46.6311 49.9718 46.6567 50.0026C46.8898 50.2769 47.174 50.3522 47.5159 50.2232C47.6172 50.3483 47.7104 50.4639 47.807 50.5828C47.7403 50.6053 47.6792 50.6262 47.5843 50.6581C47.7905 50.7612 47.6459 50.9087 47.6766 51.0432C47.5276 51.1026 47.3092 51.0485 47.2325 51.2947C47.2984 51.3912 47.3759 51.5042 47.4799 51.656C47.1645 51.7711 46.976 52.0572 46.6068 52.1013C46.252 52.1442 45.9098 52.296 45.5622 52.4007C45.5402 52.4073 45.5017 52.4211 45.5021 52.4306C45.5116 52.6855 45.3158 52.6375 45.1641 52.6764C45.0082 52.7167 44.866 52.8236 44.7096 52.8461C44.6282 52.8578 44.6148 52.901 44.5684 52.927C44.4107 53.0161 44.1975 53.0335 44.0749 53.1507C43.9562 53.2641 43.8704 53.4181 43.7123 53.4913C43.6087 53.5389 43.4978 53.5731 43.3873 53.6038C42.9745 53.7194 42.7656 54.0348 42.6101 54.3914C42.5316 54.3646 42.4488 54.304 42.3887 54.3213C42.1248 54.397 41.8098 54.7276 41.7587 54.9012C41.5525 55.034 41.4056 55.1577 41.2362 55.2318C40.5966 55.5113 40.1985 56.1171 39.588 56.433C39.5517 56.4521 39.5261 56.4927 39.4979 56.5257C39.4931 56.5313 39.5009 56.5482 39.5036 56.5629C39.871 56.6564 40.2319 56.6819 40.6058 56.5568C40.9021 56.4578 40.9009 56.4966 41.1218 56.7762C41.1938 56.8675 41.3636 56.8913 41.4944 56.9233C41.604 56.9501 41.7219 56.9432 41.8947 56.9558C41.6868 57.2228 42.0126 57.3881 41.9224 57.6543C41.8557 57.852 41.9567 58.1065 41.987 58.373C42.0225 58.3774 42.0945 58.3864 42.185 58.3972C42.1352 58.6033 42.38 58.8171 42.1486 58.9832C42.2535 59.1165 42.3782 59.2151 42.4147 59.3393C42.4458 59.4467 42.4025 59.5968 42.3462 59.7037C42.2448 59.8954 42.2353 60.0858 42.2881 60.284C42.3376 60.4679 42.3926 60.6414 42.2756 60.8267C42.2384 60.8855 42.2678 60.9863 42.2664 61.0677C42.2652 61.136 42.292 61.2325 42.2574 61.2676C42.1452 61.3792 42.1669 61.5 42.1911 61.6272C42.2782 62.085 42.0637 62.5321 42.1404 62.9908C42.1482 63.0384 42.0975 63.0933 42.0854 63.1474C42.0356 63.3695 41.8215 63.539 41.8904 63.8039C41.9068 63.8666 41.8462 63.9627 41.7981 64.0259C41.7244 64.1224 41.607 64.1912 41.5529 64.2951C41.5027 64.392 41.5105 64.5188 41.4909 64.6443C41.4281 64.623 41.3882 64.6097 41.338 64.5927C41.3311 64.7291 41.3242 64.8632 41.3172 65.0026C41.0746 64.955 41.1535 64.7546 41.0875 64.614C41.0269 64.6044 40.961 64.5945 40.8948 64.5841C41.2032 64.3929 41.2683 64.1691 41.0607 63.8385C40.9992 64.1159 40.9477 64.3496 40.8956 64.5837C40.9376 64.7356 40.8233 64.659 40.7683 64.6711C40.76 64.498 40.7618 64.3232 40.7419 64.1509C40.7219 63.9809 40.6994 63.977 40.5274 64.0393C40.5512 64.2751 40.5737 64.5002 40.5989 64.7534C40.6795 64.7114 40.7288 64.6859 40.7783 64.6602C40.7891 64.7291 40.8306 64.8135 40.8051 64.8637C40.6898 65.0891 40.8003 65.2388 40.9493 65.3838C41.1114 65.3622 41.2731 65.3401 41.4407 65.318C41.4459 65.5764 41.2756 65.4492 41.1868 65.5033C41.2094 65.6538 41.6777 65.6145 41.3492 65.9152C41.4498 65.9667 41.5369 66.0117 41.6764 66.0836C41.5511 66.2342 41.4459 66.3614 41.3311 66.4994C41.3965 66.5942 41.4641 66.6924 41.555 66.8244C41.3029 66.8811 41.0984 66.9369 40.9177 66.7072C40.851 66.8239 40.7791 66.9075 40.7531 67.004C40.7093 67.1646 40.7076 67.3472 40.4576 67.2632C40.4364 67.3299 40.3866 67.4051 40.403 67.4606C40.4173 67.509 40.5066 67.535 40.6006 67.5951C40.5057 67.6224 40.4403 67.6414 40.3649 67.6631C40.3862 67.7279 40.4078 67.7959 40.4351 67.8803C40.231 67.8773 40.2176 67.7159 40.1721 67.6163C40.0417 67.5964 39.9815 67.8101 39.8527 67.6696C39.8467 67.6626 39.7843 67.6873 39.7704 67.7102C39.6739 67.8725 39.579 68.0374 39.601 68.2785C39.6934 68.2256 39.7587 68.188 39.8247 68.1503L39.8169 68.1417C39.874 68.413 39.6604 68.5186 39.5032 68.6622C39.3572 68.7956 39.1717 68.9072 39.1739 69.1621C39.4598 69.0521 39.7241 68.9509 40.0174 68.8383C39.9507 69.0353 39.8082 69.1093 39.6526 69.146C39.3065 69.227 39.1444 69.4472 39.1227 69.7896C39.1214 69.8099 39.1028 69.8293 39.0872 69.8583C38.8866 69.7636 39.1167 69.6013 39.0127 69.4762C38.861 69.7527 38.6912 70.0124 38.5759 70.2937C38.5244 70.4196 38.5825 70.5901 38.592 70.7692C38.5248 70.7584 38.4655 70.7494 38.3905 70.7372C38.3541 70.8034 38.3337 70.9039 38.2748 70.9376C37.9235 71.1384 37.8957 71.4993 37.8034 71.8312C37.7844 71.9005 37.7428 71.9641 37.7116 72.0302C37.6856 72.0229 37.6596 72.016 37.6336 72.0086C37.6648 71.8412 37.696 71.6732 37.7263 71.5106C37.5877 71.4807 37.4768 71.4547 37.365 71.4339C37.2433 71.4114 37.1553 71.4738 37.2207 71.5824C37.3147 71.7395 37.1904 71.8178 37.1501 71.9541C37.0574 71.9177 36.9746 71.8853 36.8919 71.8528L36.8915 71.8567ZM33.2092 47.5632C33.2343 47.5788 33.2581 47.5982 33.2854 47.6095C33.3283 47.6277 33.3738 47.6402 33.418 47.6554C33.427 47.6246 33.4527 47.5775 33.4414 47.5667C33.4076 47.5325 33.3608 47.4935 33.3179 47.4918C33.2824 47.4905 33.2455 47.5407 33.2092 47.5675C33.2074 47.5225 33.223 47.4658 33.2014 47.4347C33.1069 47.2997 33.3452 47.1023 33.1506 47.0235C33.0367 46.9777 32.8742 47.0491 32.7347 47.072C32.7174 47.0751 32.7048 47.105 32.6762 47.1383C32.7009 47.2031 32.7443 47.2745 32.7538 47.3507C32.7633 47.429 32.7321 47.5117 32.733 47.5922C32.7347 47.6943 32.769 47.7787 32.9223 47.7549C32.9432 47.7025 32.9618 47.638 32.9938 47.5805C33.0536 47.4728 33.1303 47.4848 33.2092 47.5632ZM38.1783 57.1237L38.1787 57.1294C38.2068 57.0316 38.2627 56.9315 38.2562 56.8364C38.2463 56.6931 38.3138 56.6265 38.4169 56.5547C38.5608 56.4546 38.7038 56.3504 38.829 56.2288C39.03 56.0337 39.2158 55.8233 39.4083 55.6195C39.3975 55.6035 39.3866 55.588 39.3758 55.5719C39.1102 55.6346 38.8441 55.6974 38.5682 55.7627C38.5786 55.838 38.5899 55.9159 38.5998 55.9882C38.4222 56.1003 38.2311 56.1804 38.0976 56.3162C37.9668 56.45 37.8944 56.6408 37.79 56.8173C37.7472 56.7593 37.7147 56.7152 37.6787 56.6663C37.2563 56.7109 36.9343 56.919 36.6987 57.2686C36.6731 57.3067 36.6462 57.3466 36.6124 57.3764C36.382 57.5807 35.9677 57.5755 35.9179 57.9861C35.9175 57.9909 35.9062 57.9948 35.9136 57.9896C35.8516 57.955 35.7962 57.9243 35.722 57.8832C35.622 58.1662 35.4188 58.3255 35.1965 58.4717C35.1216 58.521 35.0488 58.5955 35.0115 58.6755C34.8793 58.9615 34.6471 59.1926 34.5618 59.5046C34.5488 59.5526 34.4955 59.6038 34.4483 59.6263C34.0311 59.8235 33.8079 60.2688 33.3803 60.4549C33.3119 60.4848 33.2702 60.5744 33.2143 60.635C33.1511 60.7037 33.0874 60.7725 33.0202 60.8375C33.0129 60.8448 32.9813 60.8271 32.9544 60.8193C32.9782 60.7332 33.0021 60.6471 33.0372 60.5198C32.7582 60.6086 32.7759 60.8418 32.6784 61.0274C32.6546 60.9422 32.6395 60.8864 32.6238 60.8306C32.6008 60.8258 32.5774 60.8206 32.5545 60.8159C32.4956 60.9729 32.4514 61.1383 32.3721 61.2841C32.3166 61.3853 32.2075 61.5363 32.1308 61.5316C31.9445 61.5199 31.9185 61.6276 31.863 61.7462C31.8249 61.8284 31.7629 61.9002 31.7084 61.9743C31.5186 62.2309 31.2626 62.407 31.0073 62.5948C30.6516 62.8562 30.3331 63.1691 30.0017 63.4629C29.7166 63.7156 29.3982 63.9433 29.1651 64.2379C28.9818 64.4699 28.7609 64.6088 28.5221 64.7516C28.254 64.9117 28.059 65.1488 27.8878 65.4136C27.994 65.3916 28.0785 65.3414 28.1534 65.28C28.2072 65.2363 28.2379 65.1566 28.296 65.1281C28.6517 64.9541 28.9147 64.6767 29.1656 64.3829C29.1959 64.3474 29.2327 64.2851 29.2635 64.2873C29.5338 64.3045 29.6053 64.0856 29.6815 63.9605C29.9059 63.9125 30.0884 63.8896 30.2591 63.832C30.4341 63.7727 30.5217 63.5542 30.7465 63.5534C30.701 63.6646 30.6434 63.7654 30.5589 63.832C30.3999 63.9571 30.2344 64.0813 30.0537 64.1704C29.88 64.2561 29.8098 64.3635 29.8583 64.5491C29.4004 64.7693 29.0234 65.0809 28.7531 65.5206C28.948 65.4228 29.0905 65.2207 29.3414 65.2553C29.3536 65.257 29.3705 65.222 29.3852 65.2042C29.4974 65.0714 29.617 64.9442 29.7196 64.8039C29.7769 64.7261 29.8059 64.6274 29.8479 64.5378C30.166 64.5071 30.3562 64.2669 30.5819 64.0873C30.8643 63.8632 31.1425 63.6334 31.4207 63.4036C31.5095 63.33 31.5827 63.3105 31.6511 63.4655C31.571 63.5477 31.4995 63.6818 31.3951 63.7165C31.1586 63.7943 31.0142 63.9458 30.8596 64.1302C30.7564 64.2531 30.646 64.4032 30.4277 64.4461C30.2439 64.482 30.0915 64.6772 29.9212 64.8048C29.958 64.8784 29.987 64.9373 30.0122 64.9879C29.87 65.2462 29.6209 65.2861 29.387 65.3258C29.2569 65.6209 29.0811 65.8533 28.8501 66.0628C28.6942 66.2043 28.4056 66.2498 28.4355 66.4765C28.2813 66.5791 28.1764 66.653 28.0668 66.7201C27.9377 66.7993 27.8051 66.872 27.6751 66.9469C27.6153 67.3644 27.4537 67.538 27.1041 67.6112C26.9905 67.7449 26.8966 67.9339 26.8259 67.9258C26.5326 67.8907 26.5223 68.0677 26.4897 68.2914C26.6699 68.3347 26.8463 68.4225 27.0127 68.4069C27.3242 68.3784 27.6305 68.2914 27.9386 68.2261C28.1339 68.1845 28.3294 68.1421 28.523 68.0932C29.055 67.9591 29.591 67.8383 30.1152 67.6787C30.4285 67.5834 30.7131 67.3939 31.0264 67.2996C31.9662 67.0165 32.7724 66.4574 33.6567 66.0615C34.0267 65.8958 34.382 65.6937 34.7347 65.4925C34.8504 65.4267 34.9375 65.3116 35.0899 65.1709C35.1632 65.1705 35.3001 65.1553 35.4543 65.0666C35.6484 64.9554 35.5362 64.7576 35.6588 64.6533C36.0696 64.668 36.0696 64.668 36.0063 64.215C36.1333 64.0103 36.2997 63.9748 36.5179 64.0735C36.5933 64.1077 36.7099 64.1211 36.7788 64.0869C36.9646 63.9947 37.1401 64.0099 37.3256 64.0683C37.3901 64.0887 37.4694 64.1194 37.5258 64.0995C37.6618 64.0519 37.7883 63.977 37.9265 63.9095C37.9438 63.7105 37.9668 63.5018 37.9789 63.2928C37.9876 63.141 38.0162 62.9791 37.9772 62.838C37.8875 62.5135 37.9014 62.1911 37.9291 61.8644C37.9616 61.4793 38.0062 61.0941 38.0188 60.7081C38.0314 60.3221 38.0287 59.9335 38.001 59.5479C37.9711 59.1312 38.0717 58.6971 37.8542 58.2998C37.8238 58.244 37.8377 58.1618 37.8386 58.0922C37.8407 57.9239 37.8476 57.7555 37.8537 57.5512C37.9127 57.5106 38.0062 57.4435 38.1029 57.3811C38.2051 57.3159 38.2544 57.2388 38.1783 57.1237ZM22.6969 35.4154L22.6883 35.4063C22.5488 35.5932 22.5839 35.7966 22.6311 35.9952C22.8035 36.0735 22.9721 36.1497 23.1436 36.2276C23.1961 36.1821 23.2442 36.1475 23.2831 36.1052C23.4642 35.9096 23.6224 35.6962 23.9512 35.7516C24.0825 35.7736 24.1808 35.6586 24.1843 35.4985C24.1874 35.3643 24.2069 35.2301 24.2234 35.0527C24.3338 35.144 24.388 35.2081 24.4573 35.2414C24.5842 35.302 24.7753 35.2168 24.7532 35.0999C24.6978 34.8074 24.858 34.7888 25.0703 34.7922C25.1124 34.7931 25.1605 34.7645 25.1973 34.7373C25.5634 34.4673 25.9798 34.2414 26.0807 33.6853C26.3394 33.9194 26.4594 33.7463 26.6223 33.5858C26.8445 33.3663 27.1049 33.1833 27.3588 32.998C27.6036 32.8194 27.6778 32.8561 27.7752 33.1941C27.6297 33.2348 27.484 33.2759 27.3315 33.3188C27.3237 33.3797 27.3155 33.4469 27.3073 33.5109C26.7211 33.703 26.4113 34.1894 26.0508 34.5737C25.845 34.7264 25.6457 34.8472 25.4793 35.0034C25.2029 35.263 24.9525 35.5495 24.6817 35.8152C24.5643 35.9307 24.4231 36.0221 24.2649 36.1463C24.3841 36.1869 24.4473 36.2085 24.4664 36.215C24.3447 36.4712 24.2264 36.7201 24.093 37C24.4001 37.1208 24.3069 37.5513 24.6419 37.6556C24.657 37.6604 24.6722 37.6959 24.6713 37.7158C24.6579 37.9621 24.8541 38.0788 24.9833 38.2407C25.0972 38.3839 25.2277 38.525 25.2176 38.7345C25.2121 38.85 25.2584 38.9413 25.414 38.9352C25.4343 38.863 25.4546 38.7894 25.4963 38.6418C25.5591 38.8872 25.5872 39.0486 25.6423 39.2005C25.741 39.4744 25.9455 39.7146 25.8893 40.037C25.8815 40.082 25.9239 40.1521 25.9638 40.1867C26.0873 40.2941 26.2454 40.3702 26.3437 40.4953C26.4368 40.6134 26.471 40.7774 26.5578 40.9851C26.7046 40.7242 26.8229 40.5134 26.9477 40.2919C26.9858 40.4273 27.0213 40.5537 27.0581 40.6852C26.9793 40.6965 26.9026 40.7077 26.8493 40.7155C26.7925 40.8579 26.7336 40.9708 26.7038 41.0907C26.683 41.1747 26.6782 41.2803 26.7137 41.3529C26.7288 41.3846 26.8636 41.3582 26.9676 41.3582C26.9676 41.4365 26.9533 41.517 26.9706 41.5901C27.0088 41.7506 27.0174 41.9678 27.124 42.0479C27.2197 42.1198 27.2514 42.2094 27.3216 42.2764C27.4871 42.4348 27.4221 42.7446 27.6946 42.8221C27.6994 42.8234 27.6998 42.8438 27.7003 42.8555C27.705 43.1211 27.8987 43.2761 28.0642 43.4353C28.2045 43.5703 28.4568 43.6348 28.5247 43.7898C28.6422 44.0576 28.8661 44.1952 29.0538 44.3739C29.3943 44.698 29.7595 44.9958 30.1824 45.2125C30.3821 45.3151 30.5472 45.3216 30.7678 45.1857C31.1485 44.9503 31.305 44.5643 31.5051 44.2194C31.7963 43.7175 31.9865 43.1575 32.4128 42.7274C32.2829 42.4435 32.2564 42.1177 31.9176 41.9852C31.8782 41.9696 31.8383 41.8917 31.8404 41.845C31.8466 41.7269 31.8764 41.61 31.9029 41.4573C31.7673 41.3037 31.5866 41.1353 31.454 40.9354C31.3777 40.8202 31.3193 40.6325 31.3609 40.5164C31.4125 40.3737 31.2954 40.3287 31.2924 40.2477C31.2846 40.059 31.0953 40.2114 31.0563 40.0776C31.074 39.9981 31.0957 39.8998 31.123 39.7765C30.9952 39.7653 30.886 39.7557 30.8141 39.7497C30.7522 39.5086 30.7188 39.2888 30.6377 39.088C30.5334 38.8301 30.5169 38.837 30.7002 38.5943C30.6221 38.5553 30.5494 38.5194 30.5233 38.5064C30.5412 38.3917 30.5884 38.2953 30.5602 38.2321C30.4753 38.0404 30.3695 37.856 30.2552 37.6799C30.1651 37.5414 30.0498 37.4198 29.9844 37.3389C30.0464 37.145 30.0962 37.0264 30.1204 36.9027C30.1582 36.7136 30.1066 36.6023 29.9316 36.6002C29.6932 36.5976 29.6863 36.4124 29.5811 36.3008C29.6794 36.1683 29.9341 36.2873 29.9129 35.9982C29.6877 36.0515 29.6781 35.8641 29.6213 35.7183C29.5342 35.4941 29.4489 35.2687 29.3549 35.0475C29.3293 34.9874 29.2834 34.9247 29.2292 34.8917C29.1945 34.871 29.1278 34.9025 29.0728 34.9112C29.026 34.7633 28.939 34.6451 29.1101 34.5243C29.2413 34.4317 29.2418 34.2855 29.1604 34.144C29.1253 34.0834 29.0749 34.0176 29.0742 33.9532C29.0685 33.5784 28.8579 33.3858 28.5182 33.2979C28.4264 33.3477 28.3346 33.3971 28.2423 33.4469C28.5845 33.0453 28.5694 32.8761 28.1612 32.7133C28.0551 32.7769 27.9503 32.8401 27.809 32.925C27.7977 32.8141 27.7683 32.7289 27.7912 32.7112C27.8848 32.638 27.9944 32.5852 28.0746 32.5385C28.0746 32.3974 28.1153 32.2516 28.0642 32.1542C28.0031 32.0382 27.8627 31.9643 27.7353 31.8534C27.8463 31.8145 27.9468 31.7786 28.0486 31.7427C27.9386 31.4814 27.8983 31.4596 27.7457 31.6021C27.4931 31.8379 27.2384 32.0568 26.8987 32.1711C26.6418 32.2572 26.4187 32.4074 26.2661 32.6549C26.1223 32.8882 25.9443 33.1002 25.7679 33.3399C25.5378 33.2331 25.3351 33.3009 25.1527 33.494C24.9958 33.6602 24.7134 33.7324 24.7493 34.102C24.9243 34.0228 25.0661 33.9587 25.2073 33.8951C25.0461 34.0635 24.8481 34.1661 24.6744 34.2993C24.508 34.427 24.3663 34.5867 24.2056 34.7408C24.1683 34.5737 24.1363 34.43 24.1077 34.3015C23.9967 34.3188 23.8802 34.3698 23.8442 34.3361C23.7268 34.2249 23.6384 34.2513 23.5388 34.3426C23.4305 34.4417 23.4447 34.5464 23.5201 34.6577C23.5435 34.6918 23.5535 34.7346 23.5739 34.784C23.5067 34.8207 23.4248 34.8813 23.4135 34.8701C23.265 34.7234 23.1527 34.7606 23.044 34.9173C23.0214 34.9497 22.9647 34.9605 22.9222 34.977C22.6684 35.0748 22.6446 35.1206 22.6969 35.4154ZM27.1677 28.9905C27.056 28.9576 26.9459 28.9178 26.8324 28.8936C26.7203 28.8693 26.6413 28.823 26.6149 28.6659C26.8229 28.585 27.0235 28.5067 27.2509 28.4184C27.1972 28.3028 27.1466 28.1938 27.1158 28.1272C26.8849 28.1786 26.6465 28.138 26.5313 28.3695C26.5456 28.2622 26.5789 28.1267 26.6379 28.1142C26.887 28.0622 26.9261 27.9147 26.8987 27.6975C26.8879 27.6109 26.9243 27.5187 26.9394 27.4291C26.6305 27.3175 26.6301 27.3106 26.8017 27.0431C26.8342 26.9921 26.8601 26.9051 26.8385 26.858C26.7895 26.7515 26.7086 26.6597 26.6591 26.5887C26.6332 26.3556 26.6145 26.1418 26.5846 25.9293C26.5269 25.5182 26.4884 25.1015 26.3914 24.6994C26.3385 24.4805 26.3225 24.2663 26.3064 24.0477C26.2991 23.9447 26.2947 23.8413 26.2757 23.7401C26.2224 23.4536 26.1626 23.168 26.1054 22.882C26.0339 22.5258 25.9798 22.1688 25.9408 21.8062C25.8987 21.4175 25.7853 21.0389 25.7701 20.6365C25.7523 20.1704 25.647 19.7073 25.576 19.2435C25.5339 18.9687 25.4365 18.6926 25.4495 18.4212C25.4668 18.0561 25.2224 17.7562 25.2921 17.3702C25.3901 16.8275 25.1548 16.2823 25.2337 15.7184C25.277 15.4086 25.1622 15.0753 25.1119 14.7538C25.1016 14.6888 25.0599 14.6288 25.0374 14.5772C24.7368 14.5124 24.7675 14.804 24.6353 14.9117C24.4842 15.0351 24.3529 15.1827 24.2038 15.3285C24.2038 15.4392 24.2038 15.5673 24.2038 15.647C24.0383 15.8426 23.8399 15.9897 23.768 16.184C23.6817 16.4164 23.5331 16.5635 23.3837 16.7405C23.242 16.9076 23.213 17.1668 23.1185 17.3779C23.0826 17.4584 23.0019 17.5186 22.9421 17.5887C22.9144 17.6212 22.8603 17.6596 22.8655 17.6869C22.9336 18.0547 22.5245 18.1971 22.4812 18.5096C22.1407 18.8224 21.976 19.2444 21.7845 19.6467C21.6164 20.0012 21.4751 20.3681 21.3166 20.7273C21.2949 20.7762 21.2499 20.8247 21.2031 20.8498C21.0809 20.9147 21.0042 20.9969 20.9787 21.1432C20.9696 21.1952 20.863 21.2306 20.8014 21.273C20.97 21.5426 20.9687 21.5629 20.762 21.7404C20.5813 21.8953 20.4358 22.0549 20.4067 22.3194C20.389 22.4825 20.2928 22.6682 20.1728 22.7816C20.0407 22.9066 19.9708 23.0226 20.0176 23.2056C19.9007 23.158 19.8132 23.1226 19.7334 23.0901C19.5645 23.319 19.7161 23.4726 19.7716 23.5878C19.6463 23.9819 19.5519 24.3412 19.4171 24.6847C19.2945 24.9981 19.1247 25.2923 18.9826 25.5982C18.9388 25.6921 18.8813 25.8004 18.8916 25.8951C18.9172 26.1249 18.8145 26.2672 18.6486 26.4006C18.5658 26.4672 18.5064 26.6485 18.4471 26.6438C18.1729 26.6221 18.194 26.8285 18.1897 26.9683C18.1777 27.3435 18.0753 27.7212 17.8895 28.0164C17.6976 28.321 17.5447 28.643 17.5165 29.013C17.5069 29.1372 17.484 29.2727 17.3336 29.3301C17.2963 29.3445 17.2574 29.3891 17.2457 29.4275C17.1659 29.6936 17.1144 29.9702 17.0121 30.2268C16.9203 30.4575 16.9372 30.7448 16.6578 30.8963C16.5849 30.9356 16.5398 31.1477 16.578 31.2424C16.6408 31.3991 16.6019 31.5112 16.4965 31.5839C16.2726 31.7388 16.2462 31.9227 16.3761 32.133C16.3003 32.1659 16.2153 32.1772 16.2041 32.2122C16.1321 32.4334 16.0681 32.6584 16.0187 32.8855C15.9944 32.9972 16.033 33.1262 15.9962 33.2304C15.8835 33.5494 15.7479 33.8597 15.6222 34.1738C15.5685 34.308 15.5178 34.4434 15.4368 34.6524C15.7756 34.4711 16.0473 34.3569 16.2821 34.1907C16.5196 34.0228 16.6789 33.7514 16.9853 33.6533C16.9393 33.7861 16.8753 33.9051 16.7907 34.0068C16.7019 34.1141 16.5719 34.1916 16.4974 34.3062C16.322 34.5767 16.0395 34.7078 15.7995 34.8956C15.6322 35.0263 15.4585 35.1761 15.4723 35.4218C15.7648 35.5275 15.7171 35.212 15.8757 35.1578C16.0477 35.099 16.208 35.006 16.3844 34.922C16.3856 34.9229 16.4069 34.9333 16.4255 34.9472C16.6816 35.1314 16.6807 35.1298 16.7656 34.8238C16.7795 34.7736 16.8332 34.7346 16.8683 34.6901C16.9688 34.5624 17.0702 34.4352 17.1689 34.3062C17.2253 34.2331 17.2617 34.1349 17.3332 34.0851C17.5455 33.9376 17.7699 33.8073 17.9913 33.6731C18.0056 33.6645 18.0347 33.6797 18.0615 33.6844C18.0767 33.7549 18.0922 33.8272 18.1078 33.899C18.5091 33.8251 18.4112 33.3737 18.656 33.1842C18.772 33.2897 18.8634 33.3732 18.9688 33.4689C18.8852 33.6122 18.8045 33.7502 18.727 33.883C18.8418 34.0678 18.9817 34.0051 19.1074 33.9427C19.3353 33.8294 19.5523 33.7 19.7976 33.6164C19.9548 33.5628 20.1143 33.4733 20.1598 33.2646C20.1875 33.1387 20.2946 33.0742 20.4401 33.0353C20.6208 32.9868 20.7824 32.8669 20.9059 32.8021C20.9886 32.8575 21.0761 32.9163 21.1481 32.9647C21.116 33.1028 21.086 33.2331 21.051 33.3836C20.7335 33.4139 20.6264 33.6446 20.6151 33.9462C20.3019 34.006 20.1563 34.3698 19.8015 34.3245C19.7634 34.3197 19.6889 34.4145 19.6697 34.475C19.5952 34.7144 19.415 34.8164 19.2023 34.9155C19.0016 35.009 18.8288 35.1613 18.7942 35.4274C18.9232 35.3301 19.0528 35.2327 19.1819 35.1349C19.1923 35.1488 19.2031 35.1626 19.2136 35.1764C19.0598 35.3487 18.9059 35.521 18.7885 35.6521C18.6425 35.6175 18.5004 35.5491 18.4705 35.5824C18.3444 35.7217 18.2517 35.8914 18.1264 36.0809C18.237 36.1068 18.3063 36.1475 18.3409 36.1277C18.5524 36.0056 18.837 35.9169 18.9453 35.7295C19.1871 35.3115 19.6312 35.2963 20.0129 35.0064C19.8552 35.3392 19.5255 35.4171 19.4306 35.755C19.9362 35.6866 20.2871 35.4785 20.4773 35.0328C20.6155 35.0311 20.8075 35.0995 20.8197 34.8935C20.8305 34.7082 20.9487 34.5174 20.8144 34.3245C20.7785 34.2725 20.8088 34.1743 20.8088 34.028C21.0397 34.1738 21.1502 34.0587 21.298 33.9419C21.4657 33.8095 21.5558 33.6455 21.6545 33.4749C21.6671 33.4533 21.7052 33.4469 21.7412 33.4286C21.7325 33.5122 21.7256 33.578 21.7187 33.6481C21.7625 33.6619 21.7958 33.6831 21.8265 33.68C22.1372 33.6481 22.3642 33.3716 22.6905 33.3815C22.6983 33.3819 22.7056 33.3642 22.7147 33.3569C22.8027 33.2846 22.8862 33.2058 22.9799 33.1413C23.2008 32.9895 23.4404 32.8726 23.5977 32.6298C23.6778 32.5057 23.852 32.4424 23.9828 32.3507C24.0791 32.2832 24.1739 32.2148 24.2693 32.1464C24.3819 32.066 24.4967 31.9877 24.6064 31.9032C24.7173 31.818 24.8225 31.7259 24.9781 31.5973C24.8628 31.8756 24.6956 32.018 24.5071 32.159C24.355 32.2728 24.1107 32.3282 24.1207 32.5934C23.9491 32.5523 23.8728 32.6635 23.8746 32.7964C23.8767 32.9297 23.9851 32.9466 24.1129 32.8903C24.1129 32.7882 24.1129 32.6869 24.1129 32.5857C24.19 32.5771 24.2771 32.5883 24.3421 32.5554C24.4837 32.4835 24.5903 32.3788 24.7831 32.4896C24.8685 32.539 25.0721 32.5134 25.131 32.2988C25.1773 32.13 25.3022 31.9829 25.3923 31.8258C25.4468 32.0599 25.4777 32.0747 25.6604 31.9491C25.7827 31.8651 25.9031 31.7795 26.0119 31.7034C26.1852 31.847 26.3289 31.9664 26.4655 32.0798C26.8051 31.9491 26.93 31.8236 27.0893 31.4644L27.0806 31.4736C27.1374 31.4605 27.2115 31.4658 27.2484 31.4311C27.4239 31.2649 27.5997 31.097 27.7544 30.9122C27.8433 30.8058 27.8385 30.6721 27.7211 30.5682C27.6543 30.5825 27.5902 30.5964 27.484 30.6193C27.8043 30.2597 27.8064 30.1992 27.5889 29.8196C27.5326 29.7214 27.5005 29.6084 27.4624 29.5002C27.4069 29.3432 27.3173 29.289 27.17 29.3519C27.1002 29.3817 27.0456 29.4466 26.9841 29.4959C26.9507 29.4458 26.9152 29.393 26.8493 29.2934C26.7483 29.4725 26.6699 29.6119 26.5915 29.7517C26.5768 29.7443 26.5621 29.7365 26.5473 29.7292C26.5876 29.5322 26.6279 29.3349 26.6695 29.1333C27.001 29.241 27.001 29.241 27.1583 28.9822C27.3446 28.855 27.3428 28.8252 27.1093 28.6088C27.1322 28.7563 27.15 28.8732 27.1677 28.9905ZM34.5392 46.847C34.4677 46.8093 34.3959 46.7717 34.3187 46.731C34.3231 46.6678 34.3274 46.6021 34.3326 46.525C34.2694 46.5354 34.2186 46.5436 34.1874 46.5489C34.1502 46.3468 34.1138 46.1507 34.0662 45.8924C33.7551 46.2334 33.7893 46.5801 33.7611 46.9059C33.8755 46.9452 33.9535 46.9721 34.1065 47.0249C33.6754 47.2754 33.5237 47.6455 33.4093 47.9994C33.2542 48.0388 33.074 48.0318 33.012 48.114C32.9306 48.2218 32.9288 48.3989 32.9193 48.5477C32.9137 48.6381 32.9579 48.7321 32.9929 48.8804C33.2131 48.7403 33.3747 48.6373 33.5367 48.5342C33.5081 48.6412 33.4752 48.764 33.4388 48.9004C33.2291 48.9432 33.0147 48.9869 32.7785 49.0349C32.7785 49.2361 32.733 49.434 32.4505 49.4343C32.3895 49.3413 32.3214 49.26 32.279 49.167C32.2421 49.0855 32.1958 48.9774 32.2213 48.9052C32.2946 48.6995 32.3626 48.468 32.506 48.3166C32.7538 48.0552 32.6771 47.8285 32.5385 47.542C32.4523 47.5978 32.3274 47.6467 32.3313 47.6809C32.3669 47.9886 31.9648 48.1521 32.0775 48.4767C31.9705 48.629 31.9389 48.7879 32.009 48.9691C32.0224 49.0038 31.9618 49.0669 31.9189 49.1479C31.776 48.9947 31.6117 49.0033 31.3687 49.0085C31.5658 49.1661 31.7066 49.2786 31.8873 49.4231C31.6937 49.4118 31.5489 49.3665 31.4302 49.4041C31.1352 49.4976 31.1399 49.5127 30.9567 49.2478C30.6668 49.2951 30.3826 49.3443 30.0979 49.3867C29.9311 49.4115 29.977 49.2301 29.945 49.1973C29.6231 49.2864 29.3483 49.2357 29.0845 49.1414C28.8306 49.051 28.5759 48.9505 28.3432 48.8173C28.2015 48.7364 28.0044 48.7268 27.9272 48.5386C27.9008 48.4737 27.8472 48.3876 27.7917 48.3759C27.7314 48.3629 27.6556 48.4253 27.5811 48.4568C26.725 47.8618 25.9841 47.1469 25.3338 46.339C24.9733 45.8911 24.6289 45.4298 24.2957 44.9611C24.0106 44.56 23.7359 44.1498 23.4859 43.7261C23.1944 43.2319 22.9504 42.7096 22.6563 42.2171C22.307 41.6325 22.0297 41.015 21.7494 40.397C21.5982 40.0634 21.4153 39.7436 21.2343 39.3931C21.1216 39.5809 20.9427 39.751 20.976 39.8484C21.0596 40.092 20.8525 40.1495 20.7624 40.3062C21.0064 40.4741 20.6628 40.6822 20.8313 40.8463C20.7551 40.8838 20.6714 40.8994 20.6641 40.9327C20.5757 41.3136 20.4505 41.6758 20.2512 42.0176C20.1728 42.1518 20.1078 42.2488 19.9522 42.2752C19.9137 42.2816 19.8812 42.3262 19.831 42.3651C19.8877 42.4348 19.9336 42.492 19.9786 42.5473C19.9674 42.5728 19.9618 42.5976 19.9475 42.6148C19.7884 42.8061 19.6256 42.9944 19.47 43.1882C19.4288 43.2397 19.3734 43.3184 19.3864 43.3678C19.428 43.521 19.3422 43.6075 19.2586 43.7053C19.1975 43.7767 19.1329 43.8481 19.0901 43.9303C18.8041 44.4803 18.662 45.1014 18.2586 45.596C18.1832 45.6881 18.1724 45.8353 18.1399 45.959C18.1053 46.0932 18.0801 46.2304 18.0533 46.3567C17.6434 46.5195 17.6434 46.5195 17.7691 46.796C17.4735 47.0669 17.4446 47.5087 17.1521 47.7916C16.8466 48.0873 16.7392 48.5468 16.3376 48.7727C16.348 48.8602 16.3588 48.9502 16.3713 49.0544C16.0798 49.086 15.8657 49.1833 15.8211 49.5049C15.812 49.569 15.6725 49.6382 15.582 49.6611C15.4871 49.6854 15.3788 49.6563 15.2622 49.6503C15.2211 49.8991 15.098 50.0683 14.8974 50.1587C15.1313 50.5881 15.3515 50.9961 15.5781 51.4012C15.5971 51.4354 15.6725 51.4354 15.6964 51.4696C15.8662 51.7097 16.2526 51.8287 16.1066 52.2234C16.383 52.338 16.5052 52.4514 16.7812 52.8932C16.8583 53.0166 16.8895 53.1689 16.9562 53.3467C17.2136 53.3905 17.3501 53.5968 17.4112 53.8872C17.4861 54.2434 17.6364 54.436 17.9848 54.6882C18.0026 54.7012 18.0104 54.7267 18.0251 54.7441C18.2257 54.9821 18.3102 55.3148 18.6148 55.4684C18.6095 55.6442 18.7395 55.7225 18.8504 55.8268C18.9622 55.9319 19.0359 56.0769 19.1313 56.2007C19.2447 56.3482 19.3604 56.4941 19.4804 56.6364C19.7006 56.897 20.0987 57.041 20.0337 57.4881C20.0311 57.5058 20.0515 57.5313 20.0675 57.5465C20.2057 57.6785 20.3478 57.8066 20.4839 57.9403C20.5502 58.0056 20.6082 58.0792 20.6659 58.1528C20.8586 58.3981 21.038 58.6547 21.246 58.8867C21.3353 58.9862 21.4735 59.0658 21.6034 59.0996C21.8153 59.1541 22.0384 59.1813 22.258 59.1887C22.7039 59.2034 23.1401 59.1645 23.5851 59.0702C24.2099 58.9377 24.7727 58.6781 25.2952 58.3522C26.3836 57.6733 27.3524 56.8411 28.2349 55.9056C28.4169 55.7125 28.6149 55.5009 28.9177 55.4473C29.0559 55.4231 29.1794 55.3144 29.3215 55.2378C29.3163 55.1829 29.3098 55.1145 29.3011 55.0206C29.4913 55.0089 29.5798 54.8882 29.6235 54.7095C29.6712 54.5147 29.802 54.3771 29.9983 54.3278C30.1482 54.2902 30.23 54.2153 30.2946 54.0698C30.3929 53.847 30.5953 53.7427 30.8371 53.7063C30.8921 53.6982 30.9388 53.6363 30.9896 53.5986C30.9441 53.5497 30.8986 53.5004 30.8444 53.442C31.0554 53.2905 31.2395 53.0607 31.5597 53.3117C31.6226 53.1823 31.6944 53.0758 31.727 52.9586C31.7776 52.7764 31.8725 52.6423 32.0398 52.5548C32.1017 52.5224 32.1697 52.4882 32.2135 52.4367C32.5302 52.0632 32.8348 51.6816 33.1996 51.3501C33.3704 51.1947 33.4739 50.949 33.6628 50.8343C33.908 50.6859 34.0687 50.4634 34.2815 50.2912C34.4175 50.1812 34.6043 50.1025 34.6836 49.9619C34.8161 49.7273 35.0072 49.5966 35.2355 49.4967C35.4071 49.4214 35.421 49.3089 35.3386 49.1453C35.216 49.1522 35.0991 49.1587 34.921 49.1686C35.3321 48.854 35.0947 48.4836 35.1389 48.1426C35.1935 48.1426 35.2602 48.1426 35.33 48.1426C35.353 47.8627 35.0661 47.8068 34.9756 47.6285C34.9925 47.484 35.2515 47.365 35.0003 47.2166C34.7321 47.3226 34.697 47.32 34.6441 47.2088C34.564 47.0405 34.7828 47.0919 34.8018 46.9886C34.7122 46.9401 34.6229 46.8915 34.5341 46.8435C34.5921 46.8215 34.6918 46.8107 34.7013 46.7756C34.7321 46.6614 34.6952 46.5597 34.5025 46.497C34.5172 46.6406 34.528 46.7436 34.5392 46.847ZM44.3544 44.5609C44.6113 44.5591 44.8522 44.3861 45.0983 44.5526C45.1715 44.4176 45.2326 44.3055 45.2989 44.1843C45.5489 44.3951 45.5571 44.0476 45.7139 44.0442C45.7139 43.833 45.7087 43.6456 45.7152 43.4587C45.723 43.2323 45.7455 43.0069 45.752 42.7806C45.7542 42.7126 45.7403 42.6326 45.7044 42.5772C45.5926 42.405 45.6381 42.2076 45.7044 42.0704C45.8088 41.8537 45.801 41.6408 45.8075 41.4218C45.8196 40.9894 45.8526 40.555 45.8227 40.1253C45.801 39.8167 45.8175 39.5506 46.0562 39.3308C46.0744 39.3143 46.0623 39.265 46.0648 39.2156C46.0059 39.2156 45.9536 39.2156 45.8807 39.2156C45.7806 38.7998 45.8331 38.3995 45.9908 38.0213C46.0423 37.8976 46.0558 37.8053 46.009 37.6955C45.9735 37.6119 45.9275 37.5332 45.8868 37.4527C46.1624 37.2199 45.8262 36.9732 45.9302 36.7318C45.5159 36.9091 45.2131 37.1723 45.071 37.5989C45.0316 37.718 44.9943 37.8872 44.9055 37.9304C44.6563 38.0516 44.5364 38.2788 44.383 38.4744C44.139 38.7846 43.8929 39.0967 43.7551 39.4775C43.691 39.6549 43.597 39.8151 43.3869 39.8734C43.2309 39.9171 43.1187 40.0287 43.0901 40.1941C43.0533 40.4066 42.9324 40.5494 42.7587 40.6645C42.6096 40.7632 42.4653 40.8735 42.5473 41.1106C42.4472 41.1106 42.3267 41.1011 42.325 41.112C42.2786 41.3815 42.0728 41.3192 41.8783 41.3097C41.8245 41.5326 41.7725 41.7459 41.7188 41.9683C41.6647 41.9623 41.6001 41.9554 41.546 41.9492C41.3164 42.388 41.1738 42.8702 40.7158 43.1276C40.6596 43.3657 40.7834 43.543 40.9282 43.7188C40.5308 43.8472 40.1543 43.9195 39.7401 43.7997C39.7501 43.9204 39.7458 44.0026 39.7657 44.0779C39.819 44.2813 39.9945 44.4665 39.8402 44.6984C39.8247 44.7218 39.8558 44.795 39.8853 44.8261C40.0729 45.0239 40.0746 45.2619 40.0677 45.5138C40.0633 45.6704 40.1132 45.8288 40.1431 46.0132C40.5581 45.8755 40.9399 45.7491 41.3272 45.621C41.3584 45.8197 40.9832 45.8456 41.2007 46.0823C41.4835 45.9257 41.6746 45.6124 42.0404 45.6453C42.0429 45.6899 42.045 45.7292 42.0481 45.7769C42.3436 45.5778 42.5238 45.1723 42.9241 45.329C43.3587 45.1014 43.6914 44.7335 44.2309 44.7932C44.2707 44.7175 44.3136 44.637 44.3544 44.5609ZM14.7813 57.4063C14.5846 57.1666 14.4 56.9788 14.2592 56.7628C13.8896 56.1968 13.4741 55.6585 13.2103 55.0275C13.1214 54.8155 13.0222 54.5961 12.8762 54.423C12.5434 54.0283 12.3009 53.5809 12.0266 53.1494C11.7944 52.7837 11.7142 52.3233 11.3429 52.0438C11.2996 52.0113 11.2783 51.9464 11.2524 51.8936C11.1176 51.6218 10.998 51.3419 10.8481 51.0788C10.4963 50.4613 10.1333 49.8503 9.76802 49.2405C9.66145 49.063 9.50287 48.9293 9.30699 48.7286C9.45698 49.1475 9.60767 49.4737 9.68918 49.8169C9.80222 50.2933 9.84776 50.7858 9.95646 51.2636C9.99509 51.4323 9.97471 51.5543 9.87806 51.6643C9.94521 51.8347 10.0306 51.9819 10.0587 52.1394C10.1103 52.4268 10.2243 52.7249 9.95433 52.9897C9.89064 53.0525 9.88107 53.2243 9.91491 53.3226C10.0288 53.657 10.1649 53.9747 10.044 54.3472C10.0124 54.4442 9.98897 54.6294 10.1458 54.7228C10.1679 54.7359 10.1792 54.7878 10.1753 54.8194C10.1558 54.9959 10.1185 55.1712 10.1103 55.3482C10.1042 55.4737 10.0999 55.6186 10.154 55.7242C10.3425 56.0916 10.3178 56.4633 10.2516 56.8507C10.2204 57.032 10.2264 57.2258 10.2502 57.4093C10.3036 57.8213 10.4292 58.2311 10.1748 58.6509C10.4023 58.6816 10.5965 58.7499 10.7749 58.7209C11.0015 58.6846 11.2151 58.5695 11.4344 58.4877C11.5552 58.4427 11.6744 58.3921 11.7965 58.3522C12.1618 58.2346 12.5283 58.1212 12.8944 58.0056C13.1722 57.9177 13.4495 57.8291 13.7271 57.7408C14.0582 57.6357 14.3896 57.5305 14.7813 57.4063ZM39.4161 52.0827C39.2094 51.962 39.027 51.8932 38.8952 51.7699C38.6548 51.5457 38.4183 51.3341 38.0807 51.27C38.0218 51.2588 37.9546 51.1995 37.9248 51.1445C37.8229 50.9585 37.6766 50.961 37.5344 51.0013C37.3702 51.2506 37.4954 51.5868 37.206 51.7564C37.1882 51.7668 37.2038 51.8317 37.2025 51.8716C37.2008 51.933 37.2146 52.0014 37.1921 52.0542C37.1466 52.1598 37.0808 52.2567 37.0266 52.3523C36.9868 52.2921 36.9396 52.2207 36.8931 52.1511C36.7549 52.2255 36.6375 52.2887 36.5175 52.3536C36.4985 52.4774 36.4785 52.6033 36.459 52.7309C36.3863 52.7829 36.2684 52.8214 36.2446 52.8919C36.1432 53.1931 35.8529 53.3238 35.6865 53.5554C35.5201 53.7873 35.2303 53.9915 35.3534 54.3563C35.3681 54.4 35.3425 54.4688 35.3152 54.5139C35.1688 54.7545 34.9141 54.8419 34.6684 54.9107C34.4591 54.9695 34.4127 54.9656 34.4427 55.179C34.4656 55.3425 34.4037 55.4477 34.3036 55.5542C34.2048 55.6589 34.1112 55.7683 33.9894 55.9051C33.8629 55.9107 33.8629 55.9107 33.8023 56.0709C33.9284 56.1176 34.0545 56.1648 34.1866 56.2137C34.6004 55.8869 35.012 55.5598 35.4279 55.2378C35.4669 55.208 35.5592 55.1841 35.5804 55.205C35.6995 55.32 35.7602 55.214 35.849 55.1612C36.0557 55.0374 36.1835 54.8155 36.437 54.7428C36.6437 54.6835 36.7546 54.3805 37.0422 54.4914C37.0613 54.4987 37.1037 54.4602 37.1284 54.436C37.5877 53.9942 38.1553 53.6696 38.5392 53.1447C38.5708 53.101 38.6341 53.0677 38.6882 53.0555C38.8628 53.0174 38.965 52.8937 39.079 52.7725C39.1812 52.6639 39.2974 52.5631 39.4234 52.4834C39.6787 52.322 39.8905 52.0905 40.1933 52.0044C40.2492 51.9884 40.2986 51.949 40.3553 51.9178C40.2518 51.7772 40.1882 51.6902 40.1253 51.6046C39.8731 51.7755 39.643 51.93 39.4161 52.0827ZM8.99771 43.4119C9.11209 43.5335 9.19217 43.6313 9.28537 43.7152C9.46903 43.8802 9.65888 44.0385 9.8482 44.1978C10.5328 44.7737 11.2662 45.2641 12.1279 45.5432C12.4824 45.6578 12.5131 45.6769 12.6951 45.3696C12.9105 45.0066 13.0916 44.6223 13.277 44.2424C13.485 43.8169 13.6072 43.3471 13.9438 42.9887C14.0438 42.8819 14.0772 42.7507 14.0348 42.6321C13.608 42.7321 13.2025 42.8303 12.7952 42.9212C12.3827 43.013 11.9716 43.1181 11.5548 43.18C11.1415 43.2415 10.7091 43.2077 10.3066 43.3046C9.89232 43.4033 9.47602 43.2575 8.99771 43.4119ZM6.08834 48.2993C5.96874 48.4001 5.93711 48.5018 5.99435 48.6437C6.03155 48.736 6.03891 48.8402 6.05804 48.9393C6.084 49.0739 6.10783 49.2089 6.13512 49.3431C6.1438 49.3872 6.18278 49.4413 6.16807 49.472C6.06929 49.6772 6.07877 49.8632 6.19669 50.0636C6.25126 50.1562 6.27031 50.2951 6.24993 50.4024C6.18535 50.7378 6.27899 51.039 6.39726 51.3428C6.42978 51.4262 6.43235 51.5236 6.43926 51.6154C6.44794 51.7309 6.4397 51.8482 6.45139 51.9633C6.51642 52.5938 6.56966 53.2264 6.65808 53.8539C6.71912 54.2888 6.74773 54.7332 6.96868 55.1383C7.03973 55.2681 7.00775 55.4551 7.01767 55.616C7.02113 55.6706 6.98561 55.7602 7.00811 55.7758C7.18272 55.8956 7.10264 56.0718 7.12425 56.2249C7.1355 56.3045 7.1316 56.4036 7.17758 56.4582C7.37204 56.6897 7.3708 56.9156 7.17626 57.1505C7.23774 57.2263 7.30321 57.2817 7.33528 57.3526C7.37639 57.4435 7.39375 57.5457 7.41368 57.6443C7.42015 57.6763 7.4306 58.2229 7.44053 58.2527C7.60433 58.7292 7.7685 59.2056 7.93053 59.676C8.15538 59.6678 8.34479 59.6872 8.49469 59.5245C8.41752 59.3921 8.3214 59.2818 8.28711 59.1549C8.24813 59.0109 8.28109 58.8481 8.25159 58.6998C8.21651 58.5214 8.14935 58.3492 8.09434 58.1753C8.07396 58.1104 8.03888 58.0489 8.02718 57.9831C7.88898 57.2141 7.75636 56.4447 7.61603 55.6762C7.57182 55.4347 7.50165 55.1981 7.45957 54.9565C7.41191 54.6805 7.41324 54.3927 7.33652 54.1265C7.25856 53.8557 7.41847 53.5406 7.17147 53.3035C7.14286 53.2762 7.17537 53.1901 7.17147 53.1317C7.15375 52.8535 7.16935 52.5669 7.10476 52.2999C7.00598 51.8906 6.83916 51.4976 6.87557 51.0632C6.87991 51.0091 6.84696 50.9524 6.83482 50.8966C6.80018 50.7378 6.76554 50.5785 6.73347 50.4193C6.6711 50.1086 6.61821 49.7961 6.54628 49.488C6.49126 49.2504 6.41498 49.0177 6.3457 48.7835C6.29503 48.61 6.29193 48.4097 6.08834 48.2993ZM31.4886 46.6029C31.6377 46.5328 31.7131 46.4974 31.7941 46.4593C31.8166 46.5874 31.8344 46.6908 31.8526 46.7942C31.8782 46.7968 31.9041 46.7999 31.9297 46.8024C31.9783 46.6683 32.0268 46.5346 32.0801 46.3879C32.172 46.3879 32.2595 46.3879 32.3544 46.3879C32.3526 46.1464 32.5332 46.088 32.694 46.0256C32.7976 45.9859 32.9067 45.9751 32.8648 45.8231C32.379 45.715 32.3595 45.6986 32.3535 45.3999C32.464 45.3537 32.5731 45.3073 32.6706 45.2662C32.6295 45.1533 32.5774 45.0836 32.5875 45.0239C32.6186 44.8387 32.6784 44.6747 32.86 44.557C33.0493 44.4336 33.0307 44.3778 32.7871 44.1762C32.72 44.2869 32.6559 44.3934 32.5914 44.4994C32.477 44.6881 32.3817 44.8927 32.2421 45.0607C32.1161 45.213 32.0498 45.3294 32.1576 45.5276C32.2092 45.6224 32.1992 45.7864 32.1525 45.8903C32.0922 46.0244 32.0931 46.236 31.8474 46.2429C31.8397 46.2031 31.8362 46.1576 31.8218 46.1165C31.7807 45.9967 31.6776 46.0084 31.6403 46.0858C31.5745 46.2252 31.5498 46.3849 31.4886 46.6029ZM32.7092 57.1661C32.7265 57.1864 32.7438 57.2068 32.7612 57.2271C32.9436 57.0938 33.1108 56.8874 33.3127 56.845C33.5892 56.7866 33.619 56.4927 33.9115 56.4352C33.804 56.2898 33.726 56.1846 33.6342 56.0609C33.6012 55.8994 33.9262 55.7433 33.6853 55.5143C33.6433 55.5299 33.5814 55.5325 33.5614 55.5628C33.4449 55.7389 33.3378 55.9211 33.2278 56.102C33.1987 56.1501 33.1767 56.2379 33.1428 56.2422C32.9228 56.2708 32.9531 56.4222 32.9851 56.5586C33.0159 56.6892 32.9791 56.7788 32.8946 56.8748C32.8197 56.9602 32.7702 57.0679 32.7092 57.1661ZM39.1262 54.9068C39.2813 54.9323 39.3814 54.9488 39.4784 54.9648C39.4039 55.0215 39.3346 55.0746 39.2744 55.1205C39.3315 55.3711 39.5018 55.2322 39.6141 55.2443C39.6306 55.3166 39.6435 55.3742 39.6587 55.4408C40.0344 55.2339 40.2934 54.9993 40.3948 54.7623C40.273 54.8198 40.1781 54.8648 40.0997 54.9016C40.0621 54.7938 40.0516 54.6787 39.9897 54.6112C39.9212 54.5372 39.7974 54.4563 39.7106 54.4688C39.4642 54.5047 39.3173 54.6982 39.1262 54.9068ZM26.3454 32.2858C26.1882 32.2005 26.0933 32.1045 26.0058 32.111C25.7866 32.127 25.8806 32.3485 25.8247 32.4706C25.5426 32.4614 25.54 32.4606 25.4663 32.7458C25.4386 32.8522 25.3918 32.9094 25.2719 32.8951C25.2254 32.8894 25.1756 32.9163 25.0847 32.9392C25.1778 33.0245 25.2376 33.1223 25.2921 33.1197C25.4014 33.1145 25.5322 33.082 25.6111 33.012C25.8455 32.8051 26.0582 32.574 26.3454 32.2858ZM46.4184 42.7148C46.084 42.6914 46.0211 43.0091 45.8877 43.193C45.801 43.3124 45.7872 43.5703 46.002 43.7564C46.1394 43.6465 46.3054 43.5616 46.389 43.4263C46.428 43.3626 46.3079 43.2012 46.2555 43.0731C46.3343 42.9719 46.5385 42.9134 46.4184 42.7148ZM21.7988 35.4227C21.892 35.4482 21.9899 35.4967 22.0861 35.4937C22.1519 35.4915 22.2689 35.421 22.2719 35.3751C22.2923 35.0631 22.4647 34.8861 22.7182 34.7247C22.9036 34.607 22.8954 34.4698 22.7806 34.2954C22.4001 34.5897 22.2264 35.0774 21.8083 35.3314C21.7971 35.3379 21.8031 35.3743 21.7988 35.4227ZM23.9322 33.398C23.777 33.5403 23.638 33.6727 23.4928 33.7978C23.4521 33.8329 23.3949 33.8501 23.3429 33.8696C23.0874 33.9657 22.9998 34.1799 23.0869 34.4274C23.3815 34.208 23.6844 33.9808 23.9894 33.7562C24.1519 33.6364 24.1501 33.5892 23.9322 33.398ZM26.6245 66.4592C27.1088 66.4834 27.1825 66.0623 27.4533 65.9048C27.52 65.8659 27.5474 65.7599 27.5871 65.6937C27.4425 65.6504 27.3095 65.5638 27.215 65.5945C27.095 65.6335 27.0057 65.7676 26.8935 65.8698C26.9525 65.939 26.9928 65.9867 27.0902 66.1017C26.9529 66.2073 26.8159 66.3121 26.6245 66.4592ZM31.3362 19.7658C31.2145 19.816 31.0887 19.8471 30.9913 19.9172C30.9406 19.9536 30.9103 20.1189 30.9202 20.1236C31.1091 20.2145 30.9991 20.5045 31.2686 20.5785C31.3219 20.4902 31.4319 20.389 31.4363 20.2829C31.4428 20.1202 31.3765 19.9549 31.3362 19.7658ZM36.3217 11.854C36.4968 11.8163 36.5899 11.8055 36.6761 11.7752C36.8412 11.7168 36.9699 11.513 36.9187 11.3611C36.8936 11.2872 36.8113 11.2162 36.7368 11.1816C36.6926 11.1607 36.5761 11.1954 36.5574 11.2356C36.4729 11.417 36.4118 11.6091 36.3217 11.854ZM37.1306 70.1768C36.9716 70.5217 36.6761 70.7744 36.8078 71.1696C36.933 71.215 37.0084 71.1774 37.0141 71.0575C37.021 70.9095 37.0734 70.8013 37.1839 70.6939C37.3317 70.5508 37.3047 70.3785 37.1306 70.1768ZM33.3279 46.1801C33.4951 46.1413 33.6294 46.1486 33.6979 46.085C33.8209 45.9707 33.9089 45.8167 33.9968 45.6708C34.0068 45.654 33.9301 45.5496 33.8812 45.5388C33.6766 45.4926 33.4786 45.6683 33.4496 45.8898C33.4405 45.9608 33.3937 46.027 33.3279 46.1801ZM32.3886 43.4894C32.5619 43.8395 32.1901 44.1203 32.2378 44.4955C32.47 44.2913 32.5987 44.0442 32.6416 43.7932C32.6645 43.6582 32.7122 43.5271 32.7585 43.3583C32.6191 43.2596 32.5181 43.3804 32.3886 43.4894ZM40.2938 48.1902C40.2938 48.3153 40.2938 48.3854 40.2938 48.5165C40.5104 48.4113 40.692 48.3426 40.8523 48.2405C41.0027 48.1443 41.2635 48.2357 41.3272 47.9773C41.101 47.8938 41.0962 47.8878 40.9559 48.0028C40.7722 48.153 40.5872 48.2863 40.2938 48.1902ZM35.4179 48.8008C35.5531 48.6641 35.6974 48.6295 35.8542 48.7312C35.8733 48.7437 35.9708 48.6862 35.9812 48.6472C35.9911 48.6104 35.9448 48.5265 35.9062 48.5139C35.8139 48.4841 35.7121 48.4836 35.6038 48.4703C35.6294 48.3438 35.8854 48.291 35.68 48.1029C35.5583 48.3153 35.232 48.4131 35.4179 48.8008ZM31.6273 47.9085C31.9501 47.6411 31.7421 47.2672 31.9428 47.027C31.701 46.9024 31.63 46.9271 31.6277 47.1183C31.6252 47.3585 31.6273 47.5991 31.6273 47.9085ZM40.0468 55.5758C40.3706 55.5775 40.6179 55.3595 40.7449 54.9777C40.4238 55.1205 40.2076 55.314 40.0468 55.5758ZM22.8481 33.5879C23.1527 33.6347 23.2026 33.6013 23.3546 33.2672C23.0523 33.2469 23.0024 33.2768 22.8481 33.5879ZM35.339 72.5158C35.3521 72.5301 35.3655 72.5448 35.3785 72.5591C35.5089 72.4137 35.6388 72.2678 35.7607 72.1319C35.674 72.0116 35.6168 71.932 35.5596 71.8528C35.5288 71.8637 35.4976 71.8741 35.4669 71.8849C35.4245 72.0952 35.3819 72.3055 35.339 72.5158ZM41.4113 63.1743C41.2405 63.4659 41.2903 63.565 41.7583 63.7745C41.7461 63.6671 41.7647 63.5624 41.7214 63.5014C41.6352 63.3789 41.5152 63.2802 41.4113 63.1743ZM20.376 33.5749C20.0744 33.5758 19.9046 33.6658 19.8248 33.8523C20.2473 33.916 20.2508 33.9142 20.376 33.5749ZM26.2826 66.9235C26.2826 67.0282 26.2796 67.0962 26.2844 67.1637C26.2856 67.1819 26.3103 67.1983 26.3515 67.2485C26.4547 67.1628 26.5603 67.0785 26.6621 66.9893C26.8515 66.8236 26.8502 66.8223 26.8181 66.6664C26.6808 66.8464 26.5569 67.0338 26.2826 66.9235ZM22.489 35.4997C22.4695 35.4889 22.45 35.4777 22.4305 35.4669C22.3243 35.5794 22.2182 35.6919 22.0648 35.8542C22.213 35.8957 22.3126 35.9238 22.4118 35.952C22.4305 35.8667 22.4521 35.7819 22.4673 35.6962C22.4786 35.6308 22.4816 35.5651 22.489 35.4997ZM47.5341 41.8134C47.8175 41.8082 47.8175 41.8082 47.8893 41.5174C47.8044 41.4771 47.7169 41.4356 47.6172 41.3885C47.5878 41.5382 47.564 41.6598 47.5341 41.8134ZM34.2793 73.3358C34.1251 73.9438 34.1251 73.9438 34.2087 74.1243C34.3586 73.8846 34.4227 73.6595 34.2793 73.3358ZM38.4703 56.6495C38.4473 56.7676 38.4377 56.8654 38.4074 56.9558C38.374 57.0553 38.322 57.148 38.4889 57.1994C38.556 57.0748 38.6188 56.9575 38.6855 56.8337C38.6344 56.7788 38.5903 56.729 38.5431 56.6828C38.5292 56.6689 38.5053 56.665 38.4703 56.6495ZM22.2264 69.1235C22.0545 69.0145 21.9326 68.9167 21.7511 68.9643C21.8803 69.2469 21.9054 69.2569 22.2264 69.1235ZM46.6792 43.3587C46.9643 43.1774 46.9648 43.1752 46.8287 42.948C46.6251 43.0134 46.6251 43.1588 46.6792 43.3587ZM41.5092 54.6177C41.7106 54.6964 41.7869 54.5052 41.9164 54.468C41.9233 54.4663 41.8935 54.3391 41.8757 54.2408C41.7358 54.3844 41.6318 54.4914 41.5092 54.6177ZM34.0675 12.2392C33.8205 12.4162 33.8127 12.4659 34.0068 12.6641C34.1051 12.5407 34.1814 12.4287 34.0675 12.2392ZM47.103 41.9159C47.3699 41.864 47.3699 41.864 47.3005 41.3768C47.2416 41.5377 47.1801 41.7061 47.103 41.9159ZM32.9345 43.6741C32.7902 43.7871 32.7482 43.8966 32.8266 43.9983C32.8651 44.0481 32.9799 44.039 33.1407 44.074C33.0497 43.8979 32.9977 43.7975 32.9345 43.6741ZM20.8244 33.3785C20.7174 33.2746 20.6455 33.1776 20.6233 33.1881C20.5328 33.2296 20.4578 33.3045 20.3769 33.3668C20.3898 33.3945 20.4028 33.4217 20.4158 33.4494C20.5254 33.4304 20.6355 33.4113 20.8244 33.3785ZM37.4273 71.0571C37.7488 70.9189 37.7541 70.867 37.4747 70.6403C37.4577 70.7887 37.4443 70.9086 37.4273 71.0571ZM38.9382 56.5551C39.3381 56.3616 39.3381 56.3616 39.2735 56.1129C39.17 56.25 39.0652 56.3876 38.9382 56.5551ZM33.9527 75.7773C33.9869 75.776 34.0206 75.7743 34.0549 75.773C34.0549 75.6146 34.0549 75.4563 34.0549 75.2979C34.0449 75.2957 34.035 75.294 34.0245 75.2918C34.0008 75.4536 33.9765 75.6155 33.9527 75.7773ZM26.7176 67.2238C26.7341 67.2446 26.751 67.2658 26.7675 67.2866C27.1283 67.1325 27.1283 67.1325 27.1319 66.9357C26.9815 67.0404 26.8498 67.1321 26.7176 67.2238ZM46.8595 38.7924C47.0358 38.7682 47.0848 38.6526 47.1385 38.4843C47.022 38.4843 46.934 38.4843 46.8309 38.4843C46.8417 38.5995 46.8499 38.689 46.8595 38.7924ZM39.9602 55.7377C39.8996 55.6199 39.8203 55.5802 39.7466 55.6861C39.6904 55.7666 39.5096 55.8601 39.7259 55.9977C39.806 55.9086 39.8827 55.8238 39.9602 55.7377ZM17.9588 33.9713C17.7565 34.0384 17.6144 34.0769 17.6048 34.2864C17.834 34.33 17.8965 34.1976 17.9588 33.9713ZM40.9702 55.0656C40.9871 55.0863 41.004 55.1072 41.0208 55.1279C41.1599 55.0141 41.299 54.9007 41.5 54.7368C41.1863 54.7531 41.0681 54.896 40.9702 55.0656ZM47.223 42.8048C47.0367 43.0995 47.0518 43.1558 47.3278 43.2531C47.2945 43.109 47.2646 42.9809 47.223 42.8048ZM46.6026 41.6654C46.7689 41.6234 46.8287 41.5364 46.794 41.4053C46.7867 41.3768 46.6879 41.3413 46.6506 41.3564C46.5034 41.4165 46.5323 41.5269 46.6026 41.6654ZM36.7532 10.8181C36.7432 10.8453 36.7333 10.8726 36.7233 10.9003C36.8078 10.9366 36.8901 10.9829 36.9785 11.0015C36.9963 11.0054 37.0366 10.9054 37.0864 10.8181C36.9465 10.8181 36.8498 10.8181 36.7532 10.8181ZM33.5042 45.2731C33.2577 45.2065 33.2577 45.2065 33.2074 45.4748C33.3314 45.3904 33.418 45.332 33.5042 45.2731ZM34.9262 15.8304C34.8339 15.8594 34.7416 15.888 34.6134 15.9283C34.8356 16.0832 34.8357 16.0832 34.9262 15.8304ZM46.2256 40.1253C46.1688 39.969 46.1546 39.8479 46.0055 39.9375C45.9683 39.96 45.9557 40.024 45.9154 40.0998C46.0281 40.1093 46.1004 40.1149 46.2256 40.1253ZM33.0532 18.3762C33.0229 18.4541 32.9908 18.5312 32.9661 18.6108C32.9643 18.616 33.0237 18.6566 33.0458 18.6502C33.1788 18.6116 33.1698 18.5165 33.0532 18.3762ZM14.6474 49.8009C14.6504 49.8329 14.6539 49.865 14.6569 49.897C14.7449 49.89 14.8324 49.8831 14.9823 49.871C14.8294 49.7308 14.7396 49.7091 14.6474 49.8009ZM26.5816 66.3116C26.4785 66.2653 26.4274 66.2276 26.3736 66.2238C26.3424 66.2216 26.2748 66.2848 26.2796 66.2982C26.297 66.3454 26.3312 66.3956 26.3736 66.4198C26.3926 66.4306 26.4451 66.3848 26.5816 66.3116ZM16.6984 35.8559C16.7153 35.8251 16.7318 35.7945 16.7487 35.7637C16.6972 35.7451 16.6391 35.7031 16.5953 35.7144C16.5412 35.7282 16.4979 35.7862 16.4502 35.8251C16.4827 35.8632 16.5157 35.9337 16.5468 35.9329C16.598 35.9316 16.6478 35.884 16.6984 35.8559ZM46.0662 41.0068C46.1173 41.1388 46.1489 41.2206 46.1979 41.3473C46.2776 41.0743 46.2776 41.0743 46.0662 41.0068ZM47.4929 43.7283C47.7243 43.737 47.8014 43.6746 47.7694 43.5071C47.7667 43.4924 47.7368 43.4829 47.7022 43.4582C47.6489 43.5275 47.5947 43.5972 47.4929 43.7283ZM42.5156 53.969C42.4983 53.9379 42.4809 53.9063 42.4636 53.8751C42.3618 53.937 42.26 53.9993 42.1582 54.0612C42.1703 54.0815 42.1825 54.1023 42.1946 54.1226C42.3016 54.0712 42.4086 54.0201 42.5156 53.969ZM36.7913 12.5143C36.6956 12.6615 36.537 12.7394 36.7684 12.8831C36.7762 12.7614 36.7819 12.6693 36.7913 12.5143ZM27.832 66.4193C27.8094 66.3921 27.7873 66.3653 27.7648 66.338C27.6872 66.3977 27.6097 66.4574 27.5326 66.5176C27.5469 66.5384 27.5612 66.5591 27.5754 66.58C27.6608 66.5267 27.7466 66.473 27.832 66.4193ZM33.8374 76.352C33.9492 76.1266 33.9492 76.1266 33.8374 75.9971C33.8374 76.105 33.8374 76.1953 33.8374 76.352ZM25.855 66.8634C25.8299 66.8422 25.8047 66.8205 25.7796 66.7993C25.7177 66.8776 25.6553 66.9559 25.5933 67.0343C25.6171 67.0529 25.6414 67.0715 25.6652 67.0901C25.7285 67.0144 25.7917 66.9391 25.855 66.8634ZM40.9463 62.2543C40.7752 62.2746 40.7739 62.2746 40.7613 62.4074C40.76 62.42 40.7873 62.4352 40.8242 62.4715C40.8679 62.3941 40.9073 62.3239 40.9463 62.2543ZM32.4787 68.4273C32.496 68.4468 32.513 68.4658 32.5302 68.4852C32.6239 68.4502 32.6702 68.3619 32.6901 68.245C32.6199 68.3061 32.5493 68.3667 32.4787 68.4273ZM33.3431 77.6875C33.3642 77.6905 33.3855 77.6931 33.4068 77.6961C33.418 77.6559 33.4427 77.613 33.4366 77.5758C33.4301 77.5378 33.3933 77.5044 33.3257 77.4031C33.3348 77.5546 33.3392 77.6208 33.3431 77.6875ZM35.6081 15.5937C35.6397 15.599 35.6714 15.6045 35.703 15.6098C35.7178 15.5232 35.7325 15.4367 35.7524 15.3177C35.5267 15.3826 35.5874 15.4942 35.6081 15.5937ZM16.8384 35.4296C16.8089 35.5474 16.789 35.6161 16.7804 35.6862C16.7795 35.6923 16.8722 35.73 16.8956 35.7144C16.9948 35.6482 16.9848 35.5677 16.8384 35.4296ZM40.6842 51.2462C40.9259 51.2939 40.9259 51.2939 40.939 51.0852C40.8402 51.148 40.7622 51.1969 40.6842 51.2462ZM24.7251 33.6658C24.6722 33.6212 24.6323 33.5693 24.6146 33.5762C24.5686 33.5935 24.5266 33.6325 24.4976 33.6731C24.4911 33.6822 24.5496 33.7627 24.5652 33.7588C24.6128 33.7467 24.6545 33.7095 24.7251 33.6658ZM33.5497 60.1147C33.538 60.0858 33.5267 60.0564 33.515 60.0274C33.457 60.0503 33.3981 60.0715 33.3422 60.0992C33.3392 60.1005 33.363 60.1555 33.3742 60.1858C33.4332 60.1624 33.4912 60.1386 33.5497 60.1147ZM46.2247 42.3141C46.1927 42.3171 46.1606 42.3202 46.1285 42.3236C46.1381 42.3915 46.1477 42.4594 46.1567 42.5274C46.1793 42.5244 46.2018 42.5218 46.2247 42.5188C46.2247 42.4504 46.2247 42.382 46.2247 42.3141ZM35.7806 15.1324C35.901 15.2233 35.9807 15.2194 36.047 15.0865C35.9378 15.0078 35.856 14.9992 35.7806 15.1324ZM26.154 40.4684C26.1245 40.4975 26.0946 40.5269 26.0651 40.5559C26.1236 40.6091 26.1817 40.6627 26.2402 40.7159C26.2631 40.6934 26.2861 40.6709 26.309 40.6489C26.2571 40.5887 26.2055 40.5286 26.154 40.4684ZM34.0882 17.374C34.0514 17.3546 34.0141 17.3355 33.9773 17.3161C33.9435 17.3922 33.9098 17.4683 33.8755 17.545C33.9011 17.5584 33.9266 17.5723 33.9522 17.5856C33.9972 17.5151 34.0428 17.4446 34.0882 17.374ZM32.3574 47.4499C32.1564 47.3719 32.1564 47.3719 32.1468 47.5381C32.2226 47.5066 32.2902 47.4779 32.3574 47.4499ZM41.1612 62.6308C41.1244 62.6978 41.1053 62.7328 41.0863 62.7675C41.1231 62.7874 41.1582 62.8164 41.1972 62.8228C41.2124 62.8255 41.2561 62.7718 41.2513 62.7523C41.2422 62.7181 41.2071 62.6896 41.1612 62.6308ZM46.7785 39.5441C46.8179 39.5536 46.8573 39.5632 46.8972 39.5731C46.9106 39.4926 46.924 39.4121 46.937 39.3313C46.9076 39.3243 46.8781 39.3173 46.8486 39.31C46.8252 39.3883 46.8018 39.4663 46.7785 39.5441ZM24.0999 33.3681C24.1679 33.4109 24.2168 33.4581 24.2324 33.4485C24.2723 33.4247 24.3 33.3776 24.3243 33.3351C24.3273 33.33 24.2757 33.2763 24.2597 33.2807C24.2151 33.2936 24.1753 33.3248 24.0999 33.3681ZM41.1535 63.0735C41.1413 63.0501 41.1292 63.0271 41.117 63.0037C41.0742 63.0241 41.03 63.0427 40.9901 63.0678C40.9871 63.0696 41.0126 63.1167 41.0247 63.1427C41.0673 63.1193 41.1101 63.0963 41.1535 63.0735ZM26.6106 24.5415C26.5699 24.5515 26.5287 24.5614 26.488 24.5713C26.5136 24.6319 26.5383 24.6934 26.5668 24.7527C26.5681 24.7548 26.6232 24.7396 26.6232 24.7327C26.6227 24.6691 26.6158 24.6055 26.6106 24.5415ZM25.4585 67.5562C25.4933 67.5973 25.5227 67.6432 25.5305 67.6397C25.576 67.6193 25.618 67.589 25.6565 67.5566C25.6596 67.554 25.6189 67.4839 25.6102 67.4865C25.5621 67.5008 25.5179 67.5272 25.4585 67.5562ZM47.2867 40.8899C47.2382 40.9777 47.2017 41.0197 47.1957 41.0652C47.1931 41.0864 47.2503 41.115 47.2806 41.14C47.3066 41.1058 47.3465 41.0743 47.3534 41.0367C47.3594 41.0068 47.3248 40.9691 47.2867 40.8899ZM35.1341 72.1696C35.1077 72.1558 35.0809 72.1414 35.0544 72.1276C35.0328 72.1873 35.0111 72.247 34.9925 72.3076C34.992 72.3094 35.0453 72.3319 35.047 72.3289C35.0787 72.2769 35.106 72.2228 35.1341 72.1696ZM48.4404 36.2177C48.3971 36.1886 48.3642 36.1527 48.3495 36.1592C48.3126 36.1752 48.2841 36.2103 48.2524 36.2375C48.2802 36.2613 48.3118 36.3072 48.3339 36.3033C48.3685 36.2964 48.3967 36.2553 48.4404 36.2177ZM41.4082 63.8805C41.4515 63.851 41.4844 63.8355 41.4828 63.8285C41.4753 63.7996 41.4576 63.7736 41.4437 63.7463C41.4338 63.7827 41.4242 63.8199 41.4082 63.8805ZM48.0982 41.0678C48.0544 41.0491 48.0167 41.0188 47.9959 41.028C47.9626 41.0422 47.9214 41.0808 47.9184 41.1124C47.9162 41.1392 47.9635 41.1699 47.9885 41.1993C48.0146 41.1682 48.0401 41.1375 48.0982 41.0678ZM40.8454 63.7775C40.8661 63.7823 40.8874 63.7865 40.9082 63.7913C40.9195 63.7399 40.9303 63.6879 40.9415 63.6364C40.9212 63.6325 40.884 63.623 40.8835 63.6248C40.8684 63.6749 40.8571 63.726 40.8454 63.7775ZM28.5127 65.7638C28.5057 65.7447 28.4987 65.7252 28.4918 65.7062C28.4494 65.7213 28.4056 65.7348 28.3658 65.7547C28.3601 65.7573 28.3718 65.7941 28.3752 65.8149C28.4212 65.7975 28.4667 65.7807 28.5127 65.7638ZM36.5397 43.1917C36.5466 43.1717 36.5539 43.1514 36.5608 43.1315C36.508 43.1073 36.4556 43.0831 36.4027 43.0589C36.3928 43.0904 36.3824 43.1216 36.3724 43.1531C36.4283 43.1657 36.4842 43.1787 36.5397 43.1917ZM30.3947 36.254C30.3431 36.283 30.3154 36.2986 30.2881 36.3141C30.3093 36.3479 30.3245 36.3911 30.3553 36.412C30.3704 36.4223 30.4402 36.389 30.4397 36.3778C30.4376 36.3406 30.4151 36.3042 30.3947 36.254ZM36.8009 71.5317C36.82 71.5395 36.839 71.5478 36.8581 71.556C36.8837 71.5049 36.9092 71.4539 36.9343 71.4027C36.9075 71.3946 36.8594 71.3763 36.8576 71.3799C36.8351 71.4284 36.8191 71.4803 36.8009 71.5317Z" fill="url(#paint0_linear_2_4)"/>
<path d="M77.1353 37.47C75.791 37.47 74.6044 37.2294 73.5754 36.7481C72.5464 36.2667 71.7416 35.578 71.1607 34.6818C70.5798 33.7856 70.2894 32.7068 70.2894 31.4455V30.7485H73.5256V31.4455C73.5256 32.4911 73.8493 33.2794 74.4965 33.8105C75.1438 34.325 76.0234 34.5822 77.1353 34.5822C78.2639 34.5822 79.102 34.3582 79.6497 33.9101C80.2139 33.462 80.4961 32.8894 80.4961 32.1924C80.4961 31.711 80.3551 31.3211 80.0729 31.0223C79.8074 30.7236 79.4091 30.483 78.878 30.3004C78.3635 30.1012 77.7328 29.9186 76.986 29.7527L76.4134 29.6282C75.2185 29.3627 74.1895 29.0308 73.3265 28.6325C72.4801 28.2176 71.8245 27.6781 71.3598 27.0143C70.9117 26.3505 70.6877 25.4874 70.6877 24.4253C70.6877 23.3632 70.9366 22.4586 71.4345 21.7118C71.949 20.9484 72.6627 20.3675 73.5754 19.9692C74.5049 19.5543 75.5919 19.3468 76.8366 19.3468C78.0813 19.3468 79.185 19.5626 80.1476 19.9941C81.1268 20.409 81.8902 21.0397 82.4379 21.8861C83.0021 22.7159 83.2843 23.7615 83.2843 25.0228V25.7696H80.048V25.0228C80.048 24.3589 79.9152 23.8278 79.6497 23.4295C79.4007 23.0146 79.0356 22.7159 78.5543 22.5333C78.073 22.3342 77.5004 22.2346 76.8366 22.2346C75.8408 22.2346 75.1023 22.4254 74.621 22.8072C74.1563 23.1722 73.924 23.6785 73.924 24.3257C73.924 24.7573 74.0319 25.1223 74.2476 25.4211C74.48 25.7198 74.8202 25.9688 75.2683 26.1679C75.7164 26.3671 76.2889 26.5413 76.986 26.6907L77.5585 26.8152C78.8033 27.0807 79.8821 27.421 80.7948 27.8358C81.7242 28.2507 82.4462 28.7984 82.9606 29.4789C83.4751 30.1594 83.7324 31.0307 83.7324 32.0928C83.7324 33.1549 83.4585 34.0927 82.9109 34.9059C82.3797 35.7025 81.6163 36.3332 80.6206 36.7978C79.6414 37.2459 78.4796 37.47 77.1353 37.47ZM87.4281 37.1215V19.6954H90.714V26.8899H97.1865V19.6954H100.472V37.1215H97.1865V29.8772H90.714V37.1215H87.4281ZM111.781 37.47C109.59 37.47 107.848 36.8725 106.553 35.6776C105.258 34.4661 104.611 32.74 104.611 30.4995V26.3173C104.611 24.0768 105.258 22.3591 106.553 21.1641C107.848 19.9526 109.59 19.3468 111.781 19.3468C113.971 19.3468 115.714 19.9526 117.009 21.1641C118.303 22.3591 118.95 24.0768 118.95 26.3173V30.4995C118.95 32.74 118.303 34.4661 117.009 35.6776C115.714 36.8725 113.971 37.47 111.781 37.47ZM111.781 34.5324C113.009 34.5324 113.963 34.1756 114.644 33.462C115.324 32.7484 115.664 31.7941 115.664 30.5991V26.2177C115.664 25.0228 115.324 24.0684 114.644 23.3548C113.963 22.6412 113.009 22.2844 111.781 22.2844C110.569 22.2844 109.615 22.6412 108.918 23.3548C108.238 24.0684 107.897 25.0228 107.897 26.2177V30.5991C107.897 31.7941 108.238 32.7484 108.918 33.462C109.615 34.1756 110.569 34.5324 111.781 34.5324ZM123.078 37.1215V19.6954H126.364V26.616H126.812L132.462 19.6954H136.669L129.4 28.2839L136.918 37.1215H132.587L126.812 30.0514H126.364V37.1215H123.078ZM146.627 37.47C145.2 37.47 143.971 37.2127 142.943 36.6983C141.93 36.1672 141.15 35.4203 140.603 34.4578C140.071 33.4786 139.806 32.3252 139.806 30.9974V19.6954H143.092V31.097C143.092 32.1591 143.391 32.9973 143.988 33.6114C144.602 34.2254 145.482 34.5324 146.627 34.5324C147.772 34.5324 148.644 34.2254 149.241 33.6114C149.855 32.9973 150.162 32.1591 150.162 31.097V19.6954H153.448V30.9974C153.448 32.3252 153.174 33.4786 152.627 34.4578C152.095 35.4203 151.316 36.1672 150.286 36.6983C149.274 37.2127 148.054 37.47 146.627 37.47ZM157.876 37.1215V19.6954H164.125L167.585 34.881H168.033V19.6954H171.269V37.1215H165.021L161.56 21.9359H161.112V37.1215H157.876ZM175.798 37.1215V19.6954H179.084V37.1215H175.798ZM183.607 37.1215V19.6954H189.856L193.315 34.881H193.764V19.6954H197V37.1215H190.752L187.291 21.9359H186.843V37.1215H183.607ZM71.086 59.2696V41.8434H77.3345L80.7948 57.0291H81.2429V41.8434H84.4792V59.2696H78.2307L74.7704 44.0839H74.3223V59.2696H71.086ZM89.0077 59.2696V41.8434H100.21V44.8308H92.2945V48.9881H99.5139V51.9755H92.2945V56.2822H100.36V59.2696H89.0077ZM108.07 59.2696V44.8308H102.991V41.8434H116.434V44.8308H111.356V59.2696H108.07ZM121.311 59.2696L119.021 41.8434H122.282L123.975 56.9793H124.423L126.613 41.8434H132.289L134.48 56.9793H134.929L136.622 41.8434H139.883L137.592 59.2696H131.917L129.676 43.7852H129.228L126.987 59.2696H121.311ZM150.153 59.6181C147.962 59.6181 146.22 59.0206 144.925 57.8257C143.631 56.6142 142.983 54.8881 142.983 52.6476V48.4654C142.983 46.2249 143.631 44.5071 144.925 43.3122C146.22 42.1007 147.962 41.4949 150.153 41.4949C152.344 41.4949 154.087 42.1007 155.381 43.3122C156.675 44.5071 157.323 46.2249 157.323 48.4654V52.6476C157.323 54.8881 156.675 56.6142 155.381 57.8257C154.087 59.0206 152.344 59.6181 150.153 59.6181ZM150.153 56.6805C151.381 56.6805 152.335 56.3237 153.017 55.6101C153.697 54.8965 154.037 53.9421 154.037 52.7472V48.3658C154.037 47.1709 153.697 46.2165 153.017 45.5029C152.335 44.7893 151.381 44.4325 150.153 44.4325C148.942 44.4325 147.987 44.7893 147.291 45.5029C146.61 46.2165 146.269 47.1709 146.269 48.3658V52.7472C146.269 53.9421 146.61 54.8965 147.291 55.6101C147.987 56.3237 148.942 56.6805 150.153 56.6805ZM161.45 59.2696V41.8434H169.018C170.113 41.8434 171.067 42.0343 171.881 42.416C172.694 42.7978 173.325 43.3371 173.773 44.0342C174.221 44.7312 174.445 45.5527 174.445 46.4987V46.7974C174.445 47.843 174.196 48.6894 173.698 49.3367C173.201 49.9839 172.586 50.4569 171.856 50.7557V51.2038C172.519 51.237 173.034 51.4693 173.399 51.9008C173.764 52.3157 173.947 52.8717 173.947 53.5687V59.2696H170.661V54.0417C170.661 53.6434 170.553 53.3198 170.337 53.0708C170.138 52.8219 169.798 52.6974 169.317 52.6974H164.736V59.2696H161.45ZM164.736 49.7101H168.669C169.45 49.7101 170.056 49.5026 170.487 49.0877C170.934 48.6562 171.158 48.0919 171.158 47.3949V47.146C171.158 46.4489 170.943 45.8929 170.512 45.478C170.08 45.0465 169.466 44.8308 168.669 44.8308H164.736V49.7101ZM178.424 59.2696V41.8434H181.71V48.7641H182.158L187.809 41.8434H192.017L184.747 50.432L192.266 59.2696H187.933L182.158 52.1995H181.71V59.2696H178.424Z" fill="white"/>
<defs>
<linearGradient id="paint0_linear_2_4" x1="25.6338" y1="0" x2="25.6338" y2="78.8489" gradientUnits="userSpaceOnUse">
<stop stop-color="#C931FF"/>
<stop offset="1" stop-color="#4E31FF"/>
</linearGradient>
</defs>
</svg>
